<?xml version="1.0" encoding="utf-8"?>
<svg xmlns="http://www.w3.org/2000/svg" viewBox="0 0 500 500">
  <path d="M 491.514 353.296 C 491.514 480.251 411.262 478.417 290.736 478.417 C 170.206 478.417 8.485 461.337 8.485 334.382 C 8.485 207.428 192.029 21.581 312.561 21.581 C 433.087 21.581 491.514 226.341 491.514 353.296 Z" style="fill: rgb(142, 32, 45); fill-opacity: 0.5;"/>
  <path d="M 82.072 241.087 C 87.405 249.991 99.487 251.911 107.317 245.099 L 158.702 274.57 L 156.787 243.848 L 108.284 220.57 C 99.19 211.42 83.6 215.545 80.221 227.996 C 79.018 232.429 79.686 237.162 82.072 241.087 Z" fill="#ffb8b8" style=""/>
  <path d="M 230.84 359.151 C 215.598 380.485 216.143 416.177 220.395 455.242 L 292.464 455.242 L 295.597 447.93 L 299.775 455.242 L 367.666 455.242 C 367.666 455.242 362.444 356.017 353.043 352.884 C 343.642 349.75 230.84 359.151 230.84 359.151 Z" fill="#2f2e41" style=""/>
  <circle cx="292.463" cy="99.696" r="36.557" fill="#ffb8b8" style=""/>
  <path d="M 318.886 145.737 L 326.035 159.439 L 375.48 181.482 L 362.483 307.262 L 357.012 320.287 L 359.969 331.599 L 352.843 339.946 C 359.995 346.419 360.904 353.193 357.012 360.201 L 334.243 365.417 C 334.243 365.417 207.636 376.675 218.307 357.061 C 229.965 335.63 232.934 272.339 207.197 238.518 C 185.346 209.804 202.121 172.545 202.121 172.545 L 253.95 157.055 L 273.013 145.737 L 318.886 145.737 Z" style="fill: rgb(0, 66, 37);"/>
  <path d="M 308.694 46.147 C 309.045 45.403 309.812 44.947 310.633 44.995 C 293.898 43.994 276.269 45.944 262.268 55.168 C 258.876 57.402 255.676 60.067 251.986 61.689 C 251.225 62.031 251.102 63.06 251.76 63.572 L 252.165 63.89 C 252.839 64.419 252.687 65.478 251.894 65.797 C 251.863 65.808 251.834 65.82 251.803 65.828 C 250.985 66.078 250.743 67.12 251.369 67.704 C 251.417 67.749 251.469 67.79 251.524 67.825 L 254.631 69.834 C 255.311 70.266 255.317 71.257 254.641 71.695 C 254.378 71.858 254.102 71.998 253.815 72.114 C 253.036 72.407 252.845 73.422 253.464 73.978 C 254.809 75.175 255.841 76.685 256.469 78.371 C 257.505 81.065 257.692 83.998 257.867 86.876 C 258.936 82.722 263.471 80.276 267.753 80.028 C 272.037 79.779 276.215 81.193 280.383 82.209 C 289.462 84.415 298.892 84.777 308.113 83.275 C 304.982 89.56 307.623 97.055 310.282 103.554 L 318.886 99.867 C 330.702 93.196 322.471 121.412 318.053 125.286 C 327.074 128.413 350.684 93.704 343.089 80.537 C 339.138 73.689 341.941 64.855 334.175 58.36 C 330.367 54.352 322.766 56.133 318.886 52.803 C 317.358 51.491 319.687 47.985 317.588 47.221 C 316.89 46.967 308.809 45.891 308.694 46.147 Z" fill="#2f2e41" style=""/>
  <path d="M 246.772 160.595 C 240.064 190.376 222.86 259.91 205.403 274.453 C 204.297 275.497 202.97 276.28 201.52 276.745 C 140.165 291.693 120.506 253.565 120.506 253.565 C 120.506 253.565 136.948 245.552 137.365 229.891 L 170.524 240.179 L 199.429 175.131 L 203.683 171.163 L 203.707 171.14 L 246.772 160.595 Z" fill="#3f3d56" style=""/>
  <path d="M 377.59 435.605 C 385.071 428.413 384.233 416.207 375.84 410.104 L 393.039 353.419 L 363.528 362.174 L 351.719 414.661 C 344.84 425.576 352.355 439.845 365.247 440.345 C 369.837 440.523 374.299 438.81 377.59 435.605 Z" fill="#ffb8b8" style=""/>
  <path d="M 361.848 178.311 L 375.48 181.482 C 375.48 181.482 431.827 291.113 418.249 312.002 C 404.671 332.893 388.037 402.051 388.037 402.051 C 388.037 402.051 363.434 397.16 354.034 384.627 L 371.248 302.603 L 353.492 233.667 L 361.848 178.311 Z" style="fill: rgb(0, 66, 37);"/>
  <path d="M 103.216 341.11 L 103.705 164.542 C 103.735 157.099 109.782 151.086 117.222 151.098 L 250.57 151.469 C 258.012 151.498 264.025 157.545 264.013 164.986 L 263.524 341.554 C 263.495 348.995 257.448 355.009 250.006 354.997 L 116.658 354.626 C 109.218 354.598 103.203 348.551 103.216 341.11 Z" fill="#e6e6e6" style=""/>
  <path d="M 113.591 287.807 L 113.907 174.292 C 113.935 167.324 119.598 161.692 126.565 161.704 L 241.168 162.021 C 248.136 162.048 253.769 167.712 253.758 174.68 L 253.321 331.802 C 253.294 338.771 247.632 344.403 240.662 344.391 L 169.668 344.194 C 138.628 344.073 113.541 318.849 113.591 287.807 Z" fill="#fff" style=""/>
  <path d="M 228.036 211.566 L 138.676 211.566 C 134.549 211.566 131.969 207.098 134.033 203.523 C 134.991 201.864 136.761 200.843 138.676 200.843 L 228.036 200.843 C 232.163 200.843 234.743 205.311 232.68 208.885 C 231.722 210.545 229.952 211.566 228.036 211.566 Z" style="fill: rgba(0, 0, 0, 0.196);"/>
  <path d="M 158.335 186.843 L 138.676 186.843 C 134.549 186.843 131.969 182.375 134.033 178.801 C 134.991 177.141 136.761 176.12 138.676 176.12 L 158.335 176.12 C 162.463 176.12 165.042 180.588 162.978 184.162 C 162.021 185.821 160.252 186.843 158.335 186.843 Z" style="fill: rgba(0, 0, 0, 0.196);"/>
  <path d="M 228.036 236.289 L 138.676 236.289 C 134.549 236.289 131.969 231.821 134.033 228.246 C 134.991 226.587 136.761 225.566 138.676 225.566 L 228.036 225.566 C 232.163 225.566 234.743 230.034 232.68 233.609 C 231.722 235.267 229.952 236.289 228.036 236.289 Z" style="fill: rgba(0, 0, 0, 0.196);"/>
  <path d="M 228.036 261.012 L 138.676 261.012 C 134.549 261.012 131.969 256.544 134.033 252.97 C 134.991 251.31 136.761 250.289 138.676 250.289 L 228.036 250.289 C 232.163 250.289 234.743 254.756 232.68 258.331 C 231.722 259.99 229.952 261.012 228.036 261.012 Z" style="fill: rgba(0, 0, 0, 0.196);"/>
</svg>