<svg xmlns="http://www.w3.org/2000/svg"
     width="49.73" height="40"
     viewBox="0 0 100.83 81.092">
  <g id="Group_84" data-name="Group 84"
     transform="translate(-761.138,-536.936)">
    <g id="Group_83" data-name="Group 83"/>
    <path id="Path_233" data-name="Path 233"
          d="M781.2,546.032c-5.152.492-9.2,5.2-9.2,10.951V566h12.508V551.467A5.887,5.887,0,0,0,781.2,546.032Z"
          fill="currentColor"/>
    <path id="Path_234" data-name="Path 234"
          d="M812.234,600.2v8.732a10.5,10.5,0,0,1-8.339,10.485,9.581,9.581,0,0,0,1.745.17h38.871c5.569,0,10.083-4.771,10.083-10.655V600.2Z"
          fill="currentColor"/>
    <path id="Path_235" data-name="Path 235"
          d="M806.744,595.859h34.467V552.093c0-5.976-4.515-10.821-10.083-10.821H782.917a9.376,9.376,0,0,0-1.744.173,10.627,10.627,0,0,1,8.338,10.648v51.738c0,5.976,2.5,10.821,10.083,10.821C809.8,614.652,806.744,595.859,806.744,595.859Zm-5.976-34.574h29.6v5h-29.6Zm2.114,15.009h12.687v5H802.882Z"
          fill="currentColor"/>
  </g>

</svg>

