<svg xmlns="http://www.w3.org/2000/svg" width="49.73" height="40" viewBox="0 0 100.83 81.092">         <g id="Group_84" data-name="Group 84" transform="translate(-753.764 -541.272)">             <g id="Group_83" data-name="Group 83">                 <path id="Path_232" data-name="Path 232" d="M780.107,580.424H757a3.239,3.239,0,0,0-3.239,3.239v35.462A3.239,3.239,0,0,0,757,622.364h23.1a3.24,3.24,0,0,0,3.24-3.239V583.663A3.24,3.24,0,0,0,780.107,580.424Zm-19.63,8.358h16.156v5.677H760.477Zm2.737,26.938h-3.766v-3.139h3.766Zm-.925-6.788a1.811,1.811,0,1,1,1.812-1.812A1.812,1.812,0,0,1,762.289,608.932Zm8.457,6.788H766.98v-3.139h3.766Zm.372-14.014h-10.64v-3.139h10.64Zm6.824,14.014h-3.43v-3.139h3.43Z" fill="currentColor"></path>             </g>             <path id="Path_233" data-name="Path 233" d="M781.2,546.032c-5.152.492-9.2,5.2-9.2,10.951V566h12.508V551.467A5.887,5.887,0,0,0,781.2,546.032Z" fill="currentColor"></path>             <path id="Path_234" data-name="Path 234" d="M812.234,600.2v8.732a10.5,10.5,0,0,1-8.339,10.485,9.581,9.581,0,0,0,1.745.17h38.871c5.569,0,10.083-4.771,10.083-10.655V600.2Z" fill="currentColor"></path>             <path id="Path_235" data-name="Path 235" d="M806.744,595.859h34.467V552.093c0-5.976-4.515-10.821-10.083-10.821H782.917a9.376,9.376,0,0,0-1.744.173,10.627,10.627,0,0,1,8.338,10.648v51.738c0,5.976,2.5,10.821,10.083,10.821C809.8,614.652,806.744,595.859,806.744,595.859Zm-5.976-34.574h29.6v5h-29.6Zm2.114,15.009h12.687v5H802.882Z" fill="currentColor"></path>         </g>     </svg>
