<?xml version="1.0" encoding="utf-8"?>
<svg xmlns="http://www.w3.org/2000/svg" viewBox="0 0 500 500">
  <path d="M 437.301 223.554 C 535.048 338.599 302.415 465.329 175.243 457.626 C 48.071 449.923 8.673 339.285 63.296 242.636 C 117.569 146.606 177.717 0.668 266.836 53.089 C 355.955 105.51 339.554 108.509 437.301 223.554 Z" style="fill: rgb(0, 66, 37); fill-opacity: 0.5;"/>
  <polygon points="401.963 174.046 404.461 179.858 400.378 200.498 358.721 194.706 359.053 169.538 359.889 164.026 401.963 174.046" fill="#ffb6b6" style=""/>
  <polygon points="423.485 441.545 414.295 441.545 409.921 406.096 423.485 406.096 423.485 441.545" fill="#ffb6b6" style=""/>
  <path d="M 396.148 453.543 C 396.15 455.71 397.906 457.467 400.074 457.469 L 417.56 457.469 L 420.573 451.248 L 421.744 457.469 L 428.334 457.469 L 426.481 435.246 L 423.486 435.071 L 413.421 434.472 L 411.799 434.371 L 411.799 440.666 L 397.844 450.307 C 396.782 451.042 396.148 452.251 396.148 453.543 Z" fill="#2f2e41" style=""/>
  <polygon points="338.538 400.908 329.348 400.908 323.942 348.719 341.21 347.687 338.538 400.908" fill="#ffb6b6" style=""/>
  <path d="M 311.201 412.905 C 311.203 415.073 312.959 416.829 315.127 416.832 L 332.612 416.832 L 335.626 410.61 L 336.796 416.832 L 343.387 416.832 L 341.533 394.609 L 338.861 394.453 L 328.621 393.835 L 326.851 393.733 L 326.851 400.029 L 312.896 409.67 C 311.834 410.405 311.2 411.613 311.201 412.905 Z" fill="#2f2e41" style=""/>
  <path d="M 427.387 410.975 L 427.351 410.975 L 425.584 353.337 C 427.907 348.855 427.833 343.509 425.386 339.094 L 425.133 338.636 L 425.789 335.594 C 426.631 331.687 426.245 327.614 424.682 323.935 L 423.033 270.168 C 428.923 231.99 400.849 207.092 400.849 207.092 L 403.43 187.082 L 358.021 188.114 L 358.794 207.092 L 349.765 238.113 C 345.013 284.407 313.033 313.505 317.894 357.775 C 317.904 357.902 317.885 358.03 317.839 358.149 C 316.841 361.181 317.173 364.495 318.751 367.27 C 318.954 367.619 319.093 368.003 319.163 368.401 C 320.164 376.162 320.294 366.345 321.621 374.037 L 321.363 374.167 C 320.434 374.488 320.035 375.777 320.472 377.044 C 320.91 378.312 322.019 379.08 322.948 378.759 L 347.223 379.019 C 348.152 378.698 348.552 377.41 348.113 376.142 C 347.675 374.874 346.567 374.106 345.637 374.427 L 344.127 375.191 L 346.654 366.925 L 347.54 366.098 C 349.354 364.404 349.115 361.461 347.05 360.082 L 349.567 346.649 L 349.21 336.49 L 349.946 324.964 L 381.796 278.812 L 394.682 342.563 L 407.846 411.617 C 407.221 412.18 406.935 413.028 407.091 413.855 C 407.34 415.025 408.385 415.855 409.582 415.833 L 427.451 415.833 C 429.058 415.831 430.222 414.301 429.795 412.752 C 429.485 411.685 428.498 410.956 427.387 410.975 Z" fill="#2f2e41" style=""/>
  <path d="M 411.496 75.968 C 411.503 93.275 392.772 104.098 377.78 95.451 C 365.121 88.148 362.685 70.898 372.828 60.375 L 372.936 60.267 C 373.115 60.078 373.295 59.889 373.484 59.709 C 373.489 59.709 373.493 59.705 373.493 59.7 C 373.751 59.512 373.989 59.298 374.204 59.062 C 377.238 54.821 380.679 51.265 389.014 53.486 C 401.014 56.685 411.496 63.55 411.496 75.968 Z" fill="#2f2e41" style=""/>
  <path d="M 273.578 112.319 C 273.394 116.57 277.182 119.949 281.491 119.38 L 330.669 158.86 L 338.181 145.946 L 287.479 111.198 C 286.402 106.016 279.995 103.916 275.945 107.419 C 274.502 108.666 273.647 110.438 273.578 112.319 Z" fill="#ffb6b6" style="transform-box: fill-box; transform-origin: 50% 50%;" transform="matrix(0.672508, -0.74009, 0.74009, 0.672508, -0.000001, 0.000001)"/>
  <path d="M 378.968 144.737 C 378.968 144.737 378.953 143.312 370.849 143.367 C 360.792 143.434 333.091 129.774 335.514 116.908 C 333.148 117.921 330.357 117.287 328.734 115.371 L 342.218 103.087 C 346.45 103.357 346.494 106.037 346.131 107.575 L 356.969 111.649 L 385.196 126.991 L 380.212 142.401 L 378.968 144.737 Z" style="fill: rgb(0, 66, 37); transform-box: fill-box; transform-origin: 50% 50%;" transform="matrix(0.750702, -0.660641, 0.660641, 0.750702, 0, -0.000011)"/>
  <circle cx="383.475" cy="81.17" r="18.852" fill="#ffb7b7" style=""/>
  <path d="M 357.565 174.938 C 355.419 177.803 355.573 181.778 357.934 184.469 C 357.943 185.021 358.027 185.556 358.809 187.538 C 358.912 187.73 359.033 187.912 359.169 188.081 C 359.194 188.123 359.222 188.163 359.252 188.202 C 360.077 189.269 361.225 190.042 362.524 190.404 L 397.033 200.036 L 401.596 201.308 L 402.397 201.529 L 402.84 195.299 C 404.96 193.541 405.48 190.499 404.066 188.137 L 403.429 187.087 L 407.134 177.122 L 407.494 176.136 L 416.942 150.706 L 416.951 149.011 L 416.97 147.259 L 417.061 135.037 C 417.07 127.228 413.42 119.867 407.199 115.147 C 404.404 113.011 401.182 111.503 397.752 110.723 L 397.678 110.713 L 393.945 105.691 L 378.801 107.202 L 377.548 109.774 L 376.027 112.87 L 365.05 119.405 L 361.298 128.125 L 358.764 134.024 C 354.837 136.844 352.496 140.466 351.823 144.78 C 350.385 153.942 356.8 163.113 357.565 164.164 L 357.759 174.68 L 357.565 174.938 Z" style="fill: rgb(0, 66, 37);"/>
  <path d="M 403.205 86.112 C 403.034 86.086 402.863 86.049 402.693 86.022 C 399.751 85.501 396.811 84.988 393.879 84.458 L 393.609 77.812 L 390.058 83.765 C 381.956 86.454 374.374 84.934 367.243 81.58 C 364.891 80.463 362.608 79.205 360.409 77.812 C 359.684 66.573 364.228 59.378 372.684 60.132 C 372.993 60.16 373.214 59.844 373.484 59.709 C 373.489 59.709 373.493 59.705 373.493 59.7 C 373.952 59.484 374.419 59.278 374.887 59.089 C 382.359 56.169 390.845 57.814 396.685 63.316 C 402.441 68.811 405.03 77.884 403.205 86.112 Z" fill="#2f2e41" style=""/>
  <path d="M 402.693 86.022 C 402.693 86.022 397.108 65.177 373.169 60.366 C 373.142 60.357 373.053 60.321 372.936 60.267 C 372.863 60.222 372.774 60.177 372.684 60.132 C 372.954 59.979 373.214 59.844 373.484 59.709 C 373.489 59.709 373.493 59.705 373.493 59.7 C 373.726 59.484 373.96 59.269 374.204 59.062 L 374.887 59.089 C 374.887 59.089 398.906 55.285 402.693 86.022 Z" style="fill: rgb(142, 32, 45);"/>
  <path d="M 411.902 217.426 C 410.998 218.199 409.738 218.402 408.637 217.954 C 407.563 217.498 406.609 216.8 405.849 215.914 C 402.747 212.66 400.532 208.667 399.413 204.315 L 400.447 202.475 C 399.611 197.801 402.143 193.175 406.531 191.361 C 407.743 190.847 409.087 190.73 410.369 191.027 C 411.665 191.349 412.68 192.354 413.014 193.646 C 413.412 195.615 411.773 197.391 410.112 198.521 C 407.221 200.485 403.877 201.681 400.395 201.998 C 404.654 204.398 408.335 207.702 411.18 211.677 C 411.838 212.506 412.323 213.458 412.607 214.478 C 412.884 215.516 412.619 216.625 411.902 217.426 Z" fill="#2f2e41" style=""/>
  <g transform="matrix(1, 0, 0, 1, -31.674526, 48.360294)">
    <path d="M 320.117 173.279 L 320.117 173.697 C 319.218 172.644 318.299 171.599 317.391 170.553 C 317.009 170.117 316.627 169.68 316.245 169.244 C 314.628 167.408 313.002 165.579 311.365 163.755 C 309.721 161.937 308.075 160.12 306.412 158.311 C 306.013 157.876 305.612 157.439 305.204 157.003 C 304.877 156.636 304.521 156.296 304.14 155.985 C 303.756 155.666 303.316 155.422 302.841 155.267 C 302.295 155.116 301.718 155.11 301.169 155.248 C 300.541 155.395 299.942 155.621 299.333 155.813 C 298.706 156.021 298.088 156.221 297.461 156.422 C 296.206 156.831 294.962 157.239 293.708 157.648 C 293.644 157.674 293.571 157.643 293.546 157.58 L 293.544 157.575 C 293.514 157.502 293.558 157.419 293.635 157.403 C 293.945 157.303 294.262 157.203 294.58 157.103 C 295.843 156.684 297.098 156.276 298.361 155.867 C 298.987 155.658 299.615 155.458 300.242 155.258 C 300.824 155.037 301.438 154.915 302.059 154.895 C 303.074 154.967 304.026 155.414 304.731 156.149 C 305.122 156.512 305.477 156.894 305.831 157.284 C 306.25 157.739 306.667 158.194 307.086 158.648 C 308.766 160.483 310.435 162.326 312.092 164.174 C 313.755 166.027 315.404 167.884 317.036 169.744 C 317.155 169.881 317.272 170.016 317.391 170.153 C 318.308 171.189 319.208 172.234 320.117 173.279 Z" fill="#fff" style=""/>
    <path d="M 304 157.659 C 303.656 157.217 303.198 156.877 302.676 156.677 L 302.159 156.694 C 306.215 163.005 311.529 168.413 317.769 172.579 C 313.179 167.606 308.589 162.632 304 157.659 Z" fill="#fff" style=""/>
    <path d="M 372.167 206.841 C 371.574 189.142 368.447 87.854 367.17 88.237 C 366.491 84.741 359.392 78.904 355.832 78.79 C 355.676 78.786 343.041 78.582 342.886 78.586 L 348.603 106.879 L 347.192 106.931 L 340.652 107.166 L 339.242 107.214 L 335.035 107.366 L 250.206 110.412 C 250.078 110.419 249.946 110.419 249.819 110.416 L 230.81 110.019 L 223.776 109.872 L 223.551 109.869 L 218.358 109.758 L 173.117 108.819 L 161.121 108.566 L 155.207 108.445 L 153.789 108.414 L 147.045 108.275 L 145.632 108.245 L 138.732 108.103 L 137.317 108.072 L 129.737 107.912 L 128.548 107.889 L 131.573 71.943 L 129.072 70.969 L 123.904 70.491 C 120.198 70.506 112.746 70.325 112.134 73.981 L 107.521 201.001 C 106.768 205.607 110.324 219.4 114.99 219.4 L 203.076 229.75 C 204.546 229.754 205.978 230.226 207.162 231.098 L 209.056 232.501 C 210.362 233.463 211.94 233.984 213.56 233.988 C 232.857 228.895 253.146 228.895 272.443 233.988 C 274.453 233.993 276.381 233.193 277.797 231.769 C 278.997 230.57 280.598 229.857 282.292 229.767 C 282.288 229.767 340.749 222.784 365.186 221.303 C 369.758 221.064 373.009 211.34 372.167 206.841 Z" fill="#ccc" style=""/>
    <path d="M 359.518 206.062 C 359.233 213.84 352.7 219.918 344.921 219.638 C 338.749 219.42 331.383 219.311 323.388 219.478 C 297.282 220.036 264.482 223.629 244.752 236.551 C 242.273 238.179 239.342 238.982 236.38 238.848 C 236.161 238.836 235.949 238.823 235.732 238.803 C 232.659 238.522 229.765 237.24 227.493 235.153 C 216.624 225.208 191.698 213.165 134.639 212.318 C 134.402 212.318 134.171 212.305 133.939 212.292 C 126.167 211.802 120.265 205.101 120.76 197.329 L 126.369 108.331 L 127.209 94.992 L 128.685 71.657 C 128.993 66.78 133.037 62.98 137.924 62.976 L 137.982 62.976 L 171.974 63.175 C 186.295 63.823 198.157 65.647 207.558 68.647 C 210.77 69.644 213.894 70.901 216.9 72.407 C 221.005 74.398 224.694 77.152 227.769 80.524 C 229.684 82.677 232.296 84.088 235.147 84.509 C 235.589 84.574 236.035 84.614 236.482 84.63 C 239.111 84.738 241.706 83.996 243.88 82.513 C 266.086 67.634 311.339 66.505 336.33 67.147 C 343.571 67.315 349.502 72.954 350.035 80.177 L 351.048 93.452 L 352.056 106.689 L 357.869 183.188 L 359.486 204.471 C 359.525 205 359.536 205.532 359.518 206.062 Z" fill="#f2f2f2" style=""/>
    <path d="M 143.096 94.292 C 163.581 87.756 186.434 89.487 205.84 98.694 C 211.377 101.309 216.607 104.53 221.433 108.298 C 222.797 109.37 224.74 107.453 223.36 106.37 C 205.536 92.545 183.139 85.977 160.672 87.986 C 154.456 88.543 148.32 89.776 142.371 91.663 C 140.706 92.195 141.418 94.828 143.096 94.292 Z" style="fill: rgb(142, 32, 45);"/>
    <path d="M 255.816 109.355 C 274.862 99.345 297.669 97.163 318.376 102.844 C 324.279 104.461 329.986 106.729 335.387 109.607 C 336.934 110.433 338.313 108.081 336.763 107.253 C 317.027 96.723 293.336 94.298 271.784 100.169 C 265.772 101.809 259.956 104.101 254.441 107.001 C 252.887 107.818 254.264 110.172 255.816 109.355 Z" fill="#3f3d56" style=""/>
    <path d="M 255.816 127.531 C 274.862 117.521 297.669 115.338 318.376 121.02 C 324.279 122.636 329.986 124.905 335.387 127.784 C 336.934 128.61 338.313 126.256 336.763 125.43 C 317.027 114.898 293.336 112.474 271.784 118.345 C 265.772 119.985 259.956 122.276 254.441 125.177 C 252.887 125.994 254.264 128.348 255.816 127.531 Z" fill="#3f3d56" style=""/>
    <path d="M 267.817 144.878 L 267.449 145.144 C 267.573 145.051 267.702 144.964 267.836 144.882 L 267.817 144.878 Z" fill="#fff" style=""/>
    <path d="M 143.096 112.468 C 163.581 105.932 186.434 107.663 205.84 116.87 C 211.377 119.484 216.607 122.705 221.433 126.474 C 222.797 127.545 224.74 125.629 223.36 124.546 C 205.536 110.721 183.139 104.153 160.672 106.163 C 154.456 106.719 148.32 107.952 142.371 109.839 C 140.706 110.371 141.418 113.003 143.096 112.468 Z" style="fill: rgb(142, 32, 45);"/>
    <path d="M 143.096 130.644 C 163.581 124.108 186.434 125.839 205.84 135.046 C 211.377 137.66 216.607 140.881 221.433 144.65 C 222.797 145.721 224.74 143.804 223.36 142.722 C 205.536 128.896 183.139 122.329 160.672 124.338 C 154.456 124.895 148.32 126.127 142.371 128.015 C 140.706 128.546 141.418 131.179 143.096 130.644 Z" fill="#3f3d56" style=""/>
    <path d="M 143.096 148.82 C 163.581 142.284 186.434 144.015 205.84 153.222 C 211.377 155.835 216.607 159.056 221.433 162.825 C 222.797 163.896 224.74 161.981 223.36 160.898 C 205.536 147.072 183.139 140.504 160.672 142.514 C 154.456 143.07 148.32 144.304 142.371 146.191 C 140.706 146.723 141.418 149.355 143.096 148.82 Z" fill="#3f3d56" style=""/>
    <path d="M 143.096 166.995 C 163.581 160.46 186.434 162.19 205.84 171.397 C 211.377 174.011 216.607 177.232 221.433 181.001 C 222.797 182.073 224.74 180.156 223.36 179.073 C 205.536 165.247 183.139 158.68 160.672 160.689 C 154.456 161.246 148.32 162.479 142.371 164.366 C 140.706 164.898 141.418 167.531 143.096 166.995 Z" fill="#3f3d56" style=""/>
    <path d="M 143.096 185.171 C 163.581 178.636 186.434 180.366 205.84 189.573 C 211.377 192.187 216.607 195.408 221.433 199.177 C 222.797 200.248 224.74 198.332 223.36 197.249 C 205.536 183.423 183.139 176.856 160.672 178.866 C 154.456 179.422 148.32 180.655 142.371 182.542 C 140.706 183.074 141.418 185.707 143.096 185.171 Z" fill="#3f3d56" style=""/>
    <rect x="235.146" y="82.516" width="1.335" height="155.421" fill="#e6e6e6" style=""/>
    <path d="M 252.808 166.746 C 271.854 156.735 294.661 154.552 315.368 160.235 C 321.271 161.851 326.977 164.119 332.378 166.998 C 333.926 167.823 335.305 165.472 333.754 164.644 C 314.018 154.113 290.327 151.689 268.776 157.559 C 262.763 159.2 256.948 161.491 251.433 164.392 C 249.878 165.209 251.255 167.563 252.808 166.746 Z" fill="#3f3d56" style=""/>
    <path d="M 253.295 146.92 C 272.341 136.909 295.148 134.727 315.855 140.409 C 321.758 142.025 327.464 144.293 332.865 147.173 C 334.413 147.998 335.792 145.646 334.241 144.818 C 314.505 134.287 290.814 131.863 269.263 137.733 C 263.25 139.374 257.435 141.665 251.919 144.566 C 250.365 145.383 251.742 147.737 253.295 146.92 Z" fill="#3f3d56" style=""/>
    <path d="M 253.69 199.192 C 272.735 189.182 295.542 187 316.249 192.682 C 322.153 194.298 327.859 196.567 333.26 199.445 C 334.807 200.271 336.187 197.918 334.636 197.091 C 314.9 186.56 291.209 184.136 269.658 190.006 C 263.644 191.647 257.829 193.938 252.314 196.838 C 250.76 197.655 252.137 200.01 253.69 199.192 Z" fill="#3f3d56" style=""/>
    <path d="M 254.706 182.818 C 273.752 172.808 296.558 170.625 317.265 176.307 C 323.17 177.923 328.875 180.192 334.276 183.071 C 335.823 183.896 337.203 181.544 335.652 180.716 C 315.916 170.185 292.225 167.761 270.674 173.631 C 264.661 175.273 258.845 177.563 253.33 180.464 C 251.776 181.281 253.153 183.635 254.706 182.818 Z" fill="#3f3d56" style=""/>
  </g>
  <path d="M 335.552 217.382 C 340.657 216.915 344.099 211.947 342.743 207.002 L 377.836 190.621 L 398.963 156.446 L 382.356 149.742 L 368.104 177.281 L 332.03 201.319 C 326.008 203.408 324.506 211.232 329.327 215.403 C 331.043 216.888 333.293 217.604 335.552 217.382 Z" fill="#ffb6b6" style=""/>
  <path d="M 411.995 123.707 C 411.995 123.707 416.131 125.057 411.592 133.079 C 407.958 139.501 390.255 176.494 383.03 183.758 C 384.594 186.263 384.261 189.51 382.223 191.648 L 365.543 178.411 C 365.224 173.597 368.41 173.119 370.298 173.282 L 374.135 159.682 L 387.52 126.133 L 409.023 122.678 L 411.995 123.707 Z" style="fill: rgb(0, 66, 37);"/>
  <path d="M 412.356 60.825 C 413.144 57.637 418.865 55.282 409.065 50.831 C 406.687 49.75 406.785 46.03 404.773 44.363 C 402.761 42.697 399.815 41.925 397.477 43.089 C 395.388 44.129 394.212 46.483 393.961 48.802 C 393.84 51.137 394.11 53.475 394.758 55.72 L 394.568 55.998 C 398.45 58.969 402.333 61.94 406.214 64.91 C 407.641 66.002 409.506 67.144 411.105 66.325 C 412.915 65.399 411.867 62.799 412.356 60.825 Z" fill="#2f2e41" style=""/>
</svg>