<?xml version="1.0" encoding="utf-8"?>
<!-- Generator: Adobe Illustrator 19.2.1, SVG Export Plug-In . SVG Version: 6.00 Build 0)  -->
<svg version="1.1" id="layer" xmlns="http://www.w3.org/2000/svg" xmlns:xlink="http://www.w3.org/1999/xlink" x="0px" y="0px"
	 viewBox="0 0 652 652" style="enable-background:new 0 0 652 652;" xml:space="preserve">
<style type="text/css">
	.st0{fill:#192A67;}
	.st1{fill:#908DC4;}
	.st2{fill:#EE7203;}
	.st3{fill:#5DC5ED;}
	.st4{fill:#8F9343;}
	.st5{fill:url(#SVGID_1_);}
	.st6{fill:#A32425;}
	.st7{fill:url(#SVGID_2_);}
	.st8{fill:url(#SVGID_3_);}
	.st9{fill:#FFFFFF;}
</style>
<path class="st0" d="M201.9,242.1c-0.6-2.7-1.7-5.3-3.1-7.7c-6.3-10.8-19.3-16.3-32.5-19c-3.2-0.6-6.4-1.1-9.5-1.5
	c-6.8-0.8-13.5-1.1-20.3-1.1c-1.7,0-3.7,0-5.8,0.1c-1.2,0-5,0.1-10.1,0.6c-19.1,1.6-43,7.5-49,26.8c-0.6,5.9-0.9,10.9-1.1,14.5v3.9
	c3.1,47.6,31,76.5,49.6,90.2c8.3,6,14.7,9.1,16.5,9.6l0,0c5.6-1.4,65.5-32.9,66.3-107v-1.6C202.8,247.2,202.5,244.6,201.9,242.1z"/>
<path class="st1" d="M136.4,358.4"/>
<path class="st2" d="M136.4,358.4c32.4,17.3,66.3,24.5,90.2,12.5c7.7-4.1,13-15.8,10-33c-33.5,15.8-72.5,24.5-84.7,24.4
	C146.9,362.3,140.3,359.9,136.4,358.4z"/>
<path class="st1" d="M136.4,358.4"/>
<path class="st3" d="M190.6,216.9c3.1,5.7,5.8,11.5,8.3,17.5c1.4,2.4,2.4,5,3.1,7.7c10.1,21.5,30.3,65.2,34.7,95.9
	c38.9-18.4,72.7-45.9,74.3-74.7C312.3,236.7,243.8,223,190.6,216.9z"/>
<path class="st4" d="M202.8,249.9v1.6c-0.8,74-60.7,105.6-66.3,107l0,0c3.8,1.5,10.5,3.9,15.3,3.9c12.4,0.1,51.2-8.7,84.7-24.4
	c-4.4-30.7-24.5-74.4-34.7-95.9C202.5,244.6,202.8,247.2,202.8,249.9z"/>
<linearGradient id="SVGID_1_" gradientUnits="userSpaceOnUse" x1="192.3691" y1="473.4255" x2="259.8334" y2="517.6657" gradientTransform="matrix(1 0 0 1 -130.2 -148.8)">
	<stop  offset="0" style="stop-color:#992785"/>
	<stop  offset="4.000000e-002" style="stop-color:#9C2986"/>
	<stop  offset="0.38" style="stop-color:#AB328A"/>
	<stop  offset="0.71" style="stop-color:#B4388C"/>
	<stop  offset="1" style="stop-color:#B7398D"/>
</linearGradient>
<path class="st5" d="M120,348.8c-17.4-11.2-33.6-24.2-48.2-38.8c2.2,28.7,8.9,55.6,26.2,56.5c14.5,0.7,27.1-3.2,38.5-8.1l0,0
	C134.8,358,128.2,354.9,120,348.8z"/>
<path class="st6" d="M159.7,214.1c-6.5-1.1-13.7-2.2-15.2-2.5c-21.7-3-46.8-4.6-67.8-2.9c-2.4,10.4-4.1,20.9-5.2,31.5
	c5.9-19.3,29.9-25.1,49-26.8c5.1-0.5,8.9-0.6,10.1-0.6c2.1-0.1,4.1-0.1,5.8-0.1c6.8,0,13.6,0.4,20.3,1.1c3.2,0.4,6.3,0.9,9.5,1.5
	C164.1,214.9,161.9,214.4,159.7,214.1z"/>
<path class="st6" d="M70.4,258.6c0,6.3,0.3,17.9,0.3,24.3c0.1,8.7,0.3,18,1,27.1c14.6,14.7,30.8,27.7,48.2,38.8
	C101.3,335.2,73.4,306.4,70.4,258.6z"/>
<linearGradient id="SVGID_2_" gradientUnits="userSpaceOnUse" x1="221.5598" y1="318.4151" x2="326.4427" y2="387.1854" gradientTransform="matrix(1 0 0 1 -130.2 -148.8)">
	<stop  offset="0" style="stop-color:#992785"/>
	<stop  offset="9.000000e-002" style="stop-color:#A32C87"/>
	<stop  offset="0.33" style="stop-color:#B7388C"/>
	<stop  offset="0.56" style="stop-color:#C54191"/>
	<stop  offset="0.79" style="stop-color:#CE4894"/>
	<stop  offset="1" style="stop-color:#D14A95"/>
</linearGradient>
<path class="st7" d="M144.5,211.6c1.6,0.2,8.8,1.2,15.2,2.5c2.5,0.4,4.7,0.9,6.6,1.3c13.2,2.8,26.2,8.2,32.5,19
	c-2.4-6-5.2-11.8-8.3-17.5c-16.5-30.5-46.3-69.7-65-69.8c-27.8,0-41.9,31.6-48.9,61.5C97.7,207.1,122.8,208.7,144.5,211.6z"/>
<path class="st1" d="M136.4,358.4"/>
<linearGradient id="SVGID_3_" gradientUnits="userSpaceOnUse" x1="160.4853" y1="379.3846" x2="225.9523" y2="422.3138" gradientTransform="matrix(1 0 0 1 -130.2 -148.8)">
	<stop  offset="0" style="stop-color:#E9500E"/>
	<stop  offset="0.14" style="stop-color:#EA560D"/>
	<stop  offset="0.59" style="stop-color:#EB6309"/>
	<stop  offset="1" style="stop-color:#EC6608"/>
</linearGradient>
<path class="st8" d="M70.4,258.6v-3.9c0.1-3.6,0.5-8.7,1.1-14.5c1.1-10.6,2.8-21.1,5.2-31.5c-19.6,1.5-35.6,5.8-41.6,14.5
	c-13.8,19.6,5,54.9,36.7,86.8c-0.7-9.1-1-18.3-1-27.1C70.7,276.5,70.4,265,70.4,258.6z"/>
<path class="st0" d="M301.8,394.5v7.6h12.2v5.4h-12.2V420h-6v-31h20.3v5.4H301.8z M324.1,419.9v-31h6v31L324.1,419.9z M358,419.9
	l-12.3-19v19h-6v-31h5.4l12.3,18.9V389h6v31L358,419.9z M391.6,419.9l-1.8-5.5h-10.9l-1.8,5.5h-6.3l11.2-31h4.7l11.2,31H391.6z
	 M384.4,398.2l-3.9,11.2h7.7L384.4,398.2z M423.5,419.9l-12.3-19v19h-6v-31h5.4l12.3,18.9V389h6v31L423.5,419.9z M449.2,420.2
	c-3.1,0.1-6.1-1.1-8.3-3.3c-3.1-3.1-3.2-6.5-3.2-12.5s0-9.4,3.2-12.5c2.2-2.2,5.2-3.4,8.3-3.3c5.8,0,10.2,3.3,11.3,9.8h-6.1
	c-0.6-2.6-2.1-4.4-5.2-4.4c-1.5,0-2.9,0.6-3.9,1.6c-1.1,1.3-1.5,2.9-1.5,8.7c0,5.8,0.4,7.5,1.5,8.7c1,1.1,2.4,1.7,3.9,1.6
	c3,0,4.6-1.8,5.2-4.4h6.1C459.4,417,454.9,420.2,449.2,420.2z M468.4,419.9v-31h6v31L468.4,419.9z M502.6,419.9l-1.8-5.5h-11
	l-1.8,5.5h-6.3l11.2-31h4.7l11.2,31H502.6z M495.5,398.2l-3.9,11.2h7.7L495.5,398.2z M516.2,419.9v-31h6v25.6h14v5.4L516.2,419.9z
	 M304.9,504.5l-1.1-3.2h-6.3l-1.1,3.2h-2.6l5.8-16h1.9l5.8,16H304.9z M300.8,492.1l-2.5,7.2h4.9L300.8,492.1z M326.9,504.5v-10.7
	l-3.7,7.8h-1.8l-3.8-7.8v10.7h-2.5v-16h2.5l4.7,9.9l4.6-9.9h2.5v16L326.9,504.5z M333.3,504.5v-16h10.2v2.1h-7.8v4.7h6.6v2.1h-6.6
	v4.8h7.8v2.1h-10.2V504.5z M358.2,504.5v-10.7l-3.7,7.8h-1.8l-3.8-7.8v10.7h-2.5v-16h2.5l4.7,9.9l4.6-9.9h2.5v16L358.2,504.5z
	 M371,504.5h-6.4v-16h6.2c3,0,4.8,1.7,4.8,4.4c0,1.5-0.8,2.8-2.1,3.4c1.5,0.6,2.5,2.1,2.5,3.7C375.9,502.8,373.8,504.5,371,504.5z
	 M370.6,490.7H367v4.6h3.6c1.5,0,2.7-0.8,2.7-2.2c0-1.3-1.1-2.4-2.4-2.4C370.7,490.7,370.6,490.7,370.6,490.7z M370.8,497.4H367v4.9
	h3.8c1.4,0.1,2.6-0.9,2.7-2.2c0.1-1.4-0.9-2.6-2.2-2.7C371.1,497.4,370.9,497.4,370.8,497.4z M379.2,504.5v-16h10.2v2.1h-7.8v4.7
	h6.6v2.1h-6.6v4.8h7.8v2.1h-10.2V504.5z M401.2,504.5l-3.4-6.7h-3.1v6.7h-2.5v-16h6.2c3.1,0,5,1.9,5,4.7c0,2-1.3,3.8-3.2,4.3
	l3.7,7.1L401.2,504.5z M398.5,490.7h-3.6v5h3.6c1.3,0.2,2.6-0.8,2.7-2.1c0-0.1,0-0.2,0-0.3c0-1.4-1.1-2.5-2.5-2.6
	C398.7,490.7,398.6,490.7,398.5,490.7L398.5,490.7z M421.9,502.9c-2.3,2.2-5.9,2.2-8.2,0c-1.5-1.5-1.6-3.2-1.6-6.5s0-4.9,1.6-6.5
	c2.3-2.2,5.9-2.2,8.2,0c1.5,1.5,1.6,3.2,1.6,6.5S423.4,501.4,421.9,502.9z M420.1,491.5c-1.2-1.3-3.2-1.4-4.5-0.2
	c-0.1,0.1-0.1,0.1-0.2,0.2c-0.8,0.8-0.9,1.8-0.9,5c0,3.2,0.2,4.1,0.9,5c1.2,1.3,3.2,1.4,4.5,0.2c0.1-0.1,0.1-0.1,0.2-0.2
	c0.8-0.8,0.9-1.8,0.9-5C421.1,493.3,421,492.3,420.1,491.5L420.1,491.5z M429.3,490.7v4.9h6.6v2.1h-6.6v6.7h-2.5v-16h10.2v2.1h-7.8
	V490.7z M450.8,490.7v13.8h-2.5v-13.8H444v-2.1h11.2v2.1H450.8z M467,504.5v-7h-6.5v7H458v-16h2.5v6.8h6.5v-6.8h2.5v16L467,504.5z
	 M473.3,504.5v-16h10.2v2.1h-7.8v4.7h6.6v2.1h-6.6v4.8h7.8v2.1h-10.2V504.5z M492.2,504.5v-16h2.5v16L492.2,504.5z M504.6,498.1
	h-3.7v6.3h-2.5v-16h6c2.6-0.2,4.9,1.7,5.1,4.3c0,0.2,0,0.4,0,0.6C509.6,496.2,507.6,498.1,504.6,498.1z M504.5,490.7H501v5.3h3.5
	c1.4,0.2,2.7-0.9,2.8-2.3c0-0.1,0-0.3,0-0.4c0-1.5-1.1-2.6-2.6-2.7C504.7,490.7,504.6,490.7,504.5,490.7L504.5,490.7z M520.9,504.5
	l-1.1-3.2h-6.3l-1.1,3.2h-2.6l5.8-16h1.9l5.8,16H520.9z M516.7,492.1l-2.5,7.2h4.9L516.7,492.1z M540.8,502.7
	c-1.2,1.2-2.7,1.8-4.4,1.8c-1.5,0-3-0.5-4.1-1.6c-1.5-1.5-1.6-3.2-1.6-6.5s0.1-4.9,1.6-6.5c1.1-1.1,2.6-1.7,4.1-1.6
	c2.9-0.1,5.5,2,5.8,4.9h-2.5c-0.2-1.7-1.7-2.9-3.4-2.8c-0.9,0-1.7,0.4-2.4,1c-0.8,0.8-0.9,1.8-0.9,5s0.2,4.1,0.9,5
	c0.6,0.6,1.5,1,2.4,1c1,0,2-0.4,2.7-1.1c0.6-0.7,0.9-1.6,0.8-2.6v-0.9h-3.4v-2h5.8v2.5C542.4,499.9,541.8,501.5,540.8,502.7z
	 M554.4,504.5l-3.4-6.7h-3.1v6.7h-2.5v-16h6.2c3.1,0,5,1.9,5,4.7c0,2-1.3,3.8-3.2,4.3l3.7,7.1L554.4,504.5z M551.6,490.7H548v5h3.6
	c1.3,0.2,2.6-0.8,2.7-2.1c0-0.1,0-0.2,0-0.3c0-1.4-1.1-2.5-2.5-2.6C551.8,490.7,551.7,490.7,551.6,490.7z M569.5,502.9
	c-2.3,2.2-5.9,2.2-8.2,0c-1.5-1.5-1.6-3.2-1.6-6.5s0-4.9,1.6-6.5c2.3-2.2,5.9-2.2,8.2,0c1.5,1.5,1.6,3.2,1.6,6.5
	S571,501.4,569.5,502.9z M567.7,491.5c-1.2-1.3-3.2-1.4-4.5-0.2c-0.1,0.1-0.1,0.1-0.2,0.2c-0.8,0.8-0.9,1.8-0.9,5
	c0,3.2,0.2,4.1,0.9,5c1.2,1.3,3.2,1.4,4.5,0.2c0.1-0.1,0.1-0.1,0.2-0.2c0.8-0.8,0.9-1.8,0.9-5C568.7,493.3,568.6,492.3,567.7,491.5
	L567.7,491.5z M580,504.6c-3,0.2-5.6-2.1-5.7-5.1c0-0.1,0-0.3,0-0.4v-10.6h2.5V499c-0.2,1.7,1.1,3.3,2.8,3.5c0.1,0,0.3,0,0.4,0
	c1.8,0.1,3.3-1.3,3.4-3.1c0-0.1,0-0.2,0-0.4v-10.5h2.5v10.6c0,3-2.4,5.5-5.5,5.5C580.2,504.6,580.1,504.6,580,504.6z M595.5,498.1
	h-3.7v6.3h-2.5v-16h6c2.6-0.2,4.9,1.7,5.1,4.3c0,0.2,0,0.4,0,0.6C600.6,496.2,598.7,498.1,595.5,498.1z M595.4,490.7H592v5.3h3.5
	c1.4,0.2,2.7-0.9,2.8-2.3c0-0.1,0-0.3,0-0.4c0.1-1.4-1-2.6-2.4-2.7C595.8,490.6,595.6,490.7,595.4,490.7L595.4,490.7z M272.2,346.9
	h0.8v115.4h-0.8V346.9z M299.2,377.7h-2.4v-30.9h2.4V377.7z M334.1,377.7h-2.4l-17.8-26.8v26.8h-2.4v-30.9h2.4l17.8,26.7v-26.7h2.4
	V377.7z M364.5,369.4c0,1.2-0.2,2.4-0.7,3.5c-0.5,1-1.2,1.9-2,2.7c-1,0.8-2.1,1.3-3.3,1.7c-1.4,0.4-2.8,0.6-4.3,0.6
	c-1.3,0-2.7-0.1-4-0.4c-1.2-0.3-2.3-0.7-3.4-1.3c-1.1-0.7-2.1-1.4-3-2.4l1.6-1.6c0.8,0.8,1.7,1.5,2.7,2.1c0.8,0.5,1.8,0.9,2.8,1.1
	c1.1,0.2,2.2,0.3,3.3,0.3c1.4,0.1,2.9-0.2,4.2-0.7c1.1-0.4,2.1-1.2,2.8-2.2c0.6-1,1-2.2,1-3.4c0.1-1.6-0.5-3.2-1.7-4.3
	c-0.5-0.4-1.1-0.8-1.7-1c-0.9-0.3-1.8-0.5-2.8-0.6l-3.6-0.5c-2-0.2-3.9-1-5.5-2.2c-1.6-1.4-2.6-3.5-2.5-5.6c0-1.2,0.2-2.4,0.7-3.5
	c0.4-1,1.1-1.9,1.9-2.7c0.9-0.8,1.9-1.3,3.1-1.6c1.3-0.4,2.6-0.6,4-0.6c1.6,0,3.3,0.3,4.8,0.8c1.5,0.6,2.8,1.5,4,2.6l-1.5,1.5
	c-2-2-4.7-3-7.5-2.9c-1.9-0.1-3.8,0.5-5.2,1.7c-1.3,1.2-2,2.9-1.9,4.7c-0.1,1.5,0.4,3,1.5,4c0.6,0.5,1.4,0.9,2.1,1.2
	c0.8,0.3,1.6,0.6,2.5,0.7l3.3,0.5c1.1,0.2,2.3,0.4,3.4,0.7c0.8,0.3,1.5,0.7,2.1,1.2c0.9,0.7,1.6,1.6,2,2.7
	C364.3,367.2,364.6,368.3,364.5,369.4z M392,349h-9.2v28.7h-2.4V349h-9.2v-2H392V349z M403.3,377.7h-2.4v-30.9h2.4V377.7z
	 M432.9,349h-9.2v28.7h-2.4V349h-9.2v-2h20.8V349z M462.6,367.7c0,1.9-0.4,3.7-1.3,5.3c-0.9,1.5-2.2,2.8-3.8,3.7
	c-3.5,1.8-7.6,1.8-11,0c-1.6-0.8-2.9-2.1-3.8-3.7c-0.9-1.6-1.4-3.5-1.3-5.3v-20.9h2.4v20.5c0,1.6,0.3,3.1,1,4.5
	c0.7,1.2,1.7,2.2,2.9,3c2.7,1.4,5.9,1.4,8.6,0c1.2-0.7,2.2-1.7,3-3c0.7-1.4,1.1-2.9,1-4.5v-20.5h2.4v20.9H462.6z M491.8,349h-9.2
	v28.7h-2.4V349H471v-2h20.8V349z M519.5,377.7h-18.7v-30.9h18.7v2h-16.4v12.2H517v2h-13.9v12.5h16.4V377.7z M563.3,362.3
	c0,2.8,0,4.8-0.1,6.1c-0.1,1.2-0.3,2.4-0.7,3.5c-0.4,1.1-1.1,2.1-1.9,2.9c-1,1-2.2,1.8-3.5,2.4c-2.7,1.1-5.7,1.1-8.4,0
	c-1.3-0.5-2.5-1.3-3.5-2.4c-0.8-0.8-1.5-1.8-1.9-2.9c-0.4-1.1-0.7-2.3-0.7-3.5c-0.1-1.3-0.1-3.4-0.1-6.1s0-4.8,0.1-6.1
	c0.1-1.2,0.3-2.4,0.7-3.5c0.4-1.1,1.1-2.1,1.9-2.9c1-1,2.2-1.8,3.5-2.4c1.3-0.6,2.8-0.9,4.2-0.8c1.4,0,2.9,0.3,4.2,0.8
	c1.3,0.5,2.5,1.3,3.5,2.4c0.8,0.8,1.5,1.8,1.9,2.9c0.4,1.1,0.7,2.3,0.7,3.5C563.2,357.5,563.3,359.5,563.3,362.3z M561,362.3
	c0-2.5,0-4.3-0.1-5.6c-0.1-1.1-0.3-2.2-0.6-3.3c-0.3-0.9-0.8-1.7-1.5-2.4c-0.7-0.8-1.6-1.4-2.7-1.7c-2-0.8-4.3-0.8-6.3,0
	c-1,0.4-1.9,1-2.7,1.7c-0.5,0.5-0.9,1.1-1.2,1.7c-0.3,0.7-0.6,1.5-0.7,2.2c-0.2,1-0.3,2-0.3,3.1c0,1.1-0.1,2.6-0.1,4.2
	c0,2.5,0,4.3,0.1,5.6c0.1,1.1,0.3,2.2,0.6,3.3c0.3,0.9,0.8,1.7,1.5,2.4c0.8,0.8,1.7,1.4,2.7,1.7c2,0.8,4.3,0.8,6.3,0
	c1-0.4,1.9-1,2.7-1.7c0.7-0.7,1.2-1.5,1.6-2.5c0.3-1.1,0.5-2.2,0.6-3.3C560.9,366.6,561,364.7,561,362.3z M593.2,349h-16.4v12.7
	h13.9v2h-13.9v14h-2.4v-30.9h18.7V349z M313.2,462.3l-1.8-5.4h-10.9l-1.8,5.4h-6.2l11.2-30.9h4.7l11.2,30.9H313.2z M306.1,440.5
	l-3.9,11.2h7.7L306.1,440.5z M336,462.5c-3.1,0.1-6.1-1.2-8.3-3.4c-3.2-3.2-3.1-7-3.1-12.3s-0.1-9.2,3.1-12.3
	c2.2-2.2,5.2-3.4,8.3-3.4c5.7,0,10.2,3.3,11.3,9.7h-6.1c-0.6-2.5-2.1-4.4-5.2-4.4c-1.5,0-2.9,0.6-3.9,1.6c-1.1,1.3-1.5,2.8-1.5,8.7
	s0.3,7.4,1.5,8.7c1,1.1,2.4,1.7,3.9,1.6c3.1,0,4.6-1.9,5.2-4.4h6.1C346.3,459.2,341.7,462.5,336,462.5z M365.8,462.5
	c-3.1,0.1-6.1-1.2-8.3-3.4c-3.2-3.2-3.1-7-3.1-12.3s-0.1-9.2,3.1-12.3c2.2-2.2,5.2-3.4,8.3-3.4c5.7,0,10.2,3.3,11.3,9.7H371
	c-0.6-2.5-2.1-4.4-5.2-4.4c-1.5,0-2.9,0.6-3.9,1.6c-1.1,1.3-1.5,2.8-1.5,8.7s0.3,7.4,1.5,8.7c1,1.1,2.4,1.7,3.9,1.6
	c3.1,0,4.6-1.9,5.2-4.4h6.1C376,459.2,371.5,462.5,365.8,462.5z M403.9,459.1c-2.2,2.2-5.2,3.5-8.3,3.4c-3.1,0.1-6.2-1.1-8.4-3.4
	c-3.2-3.2-3.1-7-3.1-12.3s-0.1-9.2,3.1-12.3c4.6-4.5,12-4.5,16.7,0c3.2,3.2,3.1,7,3.1,12.3S407,456,403.9,459.1z M399.4,438.1
	c-2.1-2.1-5.5-2.2-7.7-0.1c0,0-0.1,0.1-0.1,0.1c-1.1,1.3-1.4,2.8-1.4,8.7s0.3,7.4,1.4,8.7c1,1.1,2.4,1.7,3.9,1.6
	c1.5,0,2.9-0.6,3.9-1.6c1.1-1.3,1.5-2.8,1.5-8.7S400.5,439.5,399.4,438.1z M426.8,462.5c-6.3,0-11.3-4.3-11.3-10.8v-20.2h6v20
	c0,3.6,2,5.7,5.3,5.7c3.3,0,5.4-2.1,5.4-5.7v-20h5.9v20.2C438.1,458.2,433.1,462.5,426.8,462.5z M465.9,462.3l-12.2-18.9v18.9h-6
	v-30.9h5.4l12.2,18.9v-18.9h6v30.9H465.9z M493.1,436.8v25.5h-5.9v-25.5h-8.1v-5.4h22.2v5.4H493.1z M523.9,462.3l-1.8-5.4h-10.9
	l-1.8,5.4H503l11.2-30.9h4.7l11.2,30.9H523.9z M516.7,440.5l-3.9,11.2h7.7L516.7,440.5z M555.1,462.3l-12.2-18.9v18.9h-6v-30.9h5.4
	l12.2,18.9v-18.9h6v30.9H555.1z M582.4,436.8v25.5h-6v-25.5h-8.1v-5.4h22.2v5.4H582.4z M606.6,462.5c-4.7,0-8.3-1-11.2-4.1l3.9-3.9
	c1.9,1.9,4.6,2.6,7.5,2.6c3.6,0,5.4-1.3,5.4-3.8c0.1-0.9-0.3-1.9-0.9-2.6c-0.8-0.6-1.7-1-2.8-1.1l-3.7-0.5c-2.2-0.2-4.3-1.1-5.9-2.6
	c-1.5-1.6-2.3-3.8-2.2-6c0-5.5,4.1-9.4,10.7-9.4c4.3,0,7.4,1,9.9,3.6l-3.8,3.8c-1.7-1.5-4-2.3-6.3-2.1c-3.2,0-4.8,1.7-4.8,3.9
	c0,0.8,0.3,1.7,0.9,2.2c0.8,0.7,1.8,1.1,2.9,1.2l3.7,0.5c2.9,0.4,4.6,1.1,5.9,2.4c1.6,1.5,2.4,3.8,2.4,6.5
	C618,459.1,613,462.5,606.6,462.5z M625.5,441.5c-2.8,0-5-2.2-5-5c0-2.8,2.2-5,5-5c2.8,0,5,2.2,5,5
	C630.5,439.3,628.3,441.5,625.5,441.5z M625.5,432.5c-2.1,0-3.9,1.6-3.9,3.8c0,0,0,0.1,0,0.1c-0.1,2.1,1.6,3.8,3.6,3.9
	c0.1,0,0.2,0,0.2,0c2.1,0,3.9-1.7,3.9-3.9C629.4,434.3,627.6,432.5,625.5,432.5L625.5,432.5L625.5,432.5z M626.4,439.2l-1-2h-0.6v2
	h-1.2v-5.3h2.1c0.9-0.1,1.7,0.6,1.7,1.5c0,0,0,0.1,0,0.1c0,0.6-0.4,1.2-1,1.4l1.1,2.2H626.4z M625.7,434.8h-0.8v1.4h0.8
	c0.4,0,0.7-0.3,0.7-0.7C626.4,435.1,626.1,434.8,625.7,434.8C625.7,434.8,625.7,434.8,625.7,434.8z"/>
<path class="st9" d="M118,337.9v-61.7h12.1V338H118V337.9z M236.6,337.9l-3.6-10.9h-22l-3.8,10.9h-12.6l22.5-61.8h9.5l22.6,61.8
	H236.6z M222.2,294.3l-7.8,22.5h15.3L222.2,294.3z M162.6,286.8V302H187v10.7h-24.4v25.1h-12.1V276h40.7v10.7H162.6z"/>
</svg>
