<svg width="322" height="353" viewBox="0 0 322 353" fill="none" xmlns="http://www.w3.org/2000/svg">
<path d="M2.30284 168.835C3.48598 170.633 5.08797 172.173 6.99596 173.347C8.90395 174.521 11.0715 175.299 13.3461 175.628C15.6206 175.957 17.9466 175.828 20.1605 175.251C22.3743 174.673 24.4221 173.661 26.1595 172.285L74.7217 197.63L72.9118 171.209L27.0738 151.192C24.3406 148.689 20.6935 147.185 16.8236 146.966C12.9536 146.747 9.12964 147.827 6.0763 150.001C3.02296 152.176 0.952367 155.295 0.256896 158.766C-0.438575 162.237 0.289389 165.82 2.30284 168.835Z" fill="#FFD3D3"/>
<path d="M142.895 270.365C128.49 288.712 129.005 319.406 133.024 353H201.132L204.094 346.713L208.042 353H272.202C272.202 353 267.266 267.67 258.383 264.976C249.499 262.281 142.895 270.365 142.895 270.365Z" fill="#1C1C1E"/>
<path d="M201.133 78.6815C220.213 78.6815 235.68 64.6066 235.68 47.2443C235.68 29.882 220.213 15.8071 201.133 15.8071C182.052 15.8071 166.585 29.882 166.585 47.2443C166.585 64.6066 182.052 78.6815 201.133 78.6815Z" fill="#FFD3D3"/>
<path d="M226.102 86.8378L232.858 98.6209L279.587 117.576L267.304 225.743L262.134 236.944L264.927 246.671L258.193 253.85C264.953 259.416 265.811 265.242 262.134 271.269L240.615 275.754C240.615 275.754 120.967 285.436 131.05 268.569C142.068 250.139 144.873 195.711 120.551 166.625C99.9016 141.933 115.755 109.892 115.755 109.892L164.735 96.5716L182.751 86.8378L226.102 86.8378Z" fill="#8E202D"/>
<path d="M216.47 1.19374C216.632 0.881174 216.894 0.619896 217.22 0.443463C217.547 0.26703 217.924 0.183496 218.304 0.203592C202.487 -0.657327 185.827 1.02016 172.595 8.95141C169.389 10.8729 166.367 13.1648 162.879 14.5587C162.714 14.626 162.571 14.7309 162.464 14.8633C162.358 14.9956 162.29 15.1508 162.269 15.3139C162.247 15.477 162.272 15.6424 162.342 15.794C162.411 15.9456 162.523 16.0782 162.665 16.1791L163.048 16.4525C163.199 16.5604 163.315 16.7039 163.383 16.8675C163.451 17.031 163.468 17.2084 163.433 17.3802C163.397 17.5521 163.311 17.7118 163.183 17.8421C163.055 17.9724 162.89 18.0683 162.706 18.1192C162.515 18.1724 162.344 18.2742 162.214 18.4128C162.084 18.5513 162 18.7208 161.972 18.9013C161.944 19.0817 161.974 19.2657 162.057 19.4314C162.14 19.5971 162.274 19.7377 162.442 19.8366L165.378 21.5634C165.526 21.6489 165.648 21.7667 165.733 21.9062C165.818 22.0457 165.863 22.2023 165.864 22.3617C165.865 22.5211 165.822 22.6782 165.739 22.8185C165.655 22.9588 165.535 23.0779 165.388 23.1648C165.139 23.3045 164.878 23.425 164.607 23.525C164.439 23.5826 164.289 23.6788 164.173 23.8042C164.058 23.9296 163.979 24.0801 163.946 24.2411C163.912 24.4021 163.925 24.5683 163.983 24.7235C164.041 24.8787 164.141 25.0178 164.275 25.1273C165.547 26.1573 166.522 27.4547 167.116 28.9064C168.095 31.2219 168.27 33.7437 168.436 36.22C169.447 32.647 173.732 30.5437 177.78 30.33C181.828 30.1163 185.776 31.3316 189.715 32.2053C198.295 34.1026 207.207 34.4146 215.922 33.1227C212.962 38.5269 215.458 44.973 217.971 50.5615L226.102 47.3901C237.269 41.6538 229.491 65.9191 225.316 69.2503C233.84 71.9396 256.152 42.0909 248.974 30.7686C245.241 24.8789 247.891 17.2826 240.55 11.6966C236.953 8.25025 229.77 9.78204 226.102 6.91769C224.658 5.79033 226.859 2.77424 224.875 2.11693C224.216 1.89861 216.579 0.973706 216.47 1.19374Z" fill="black"/>
<path d="M157.952 99.6147C151.612 125.225 135.353 185.022 118.857 197.527C117.811 198.426 116.557 199.1 115.186 199.5C57.2034 212.353 38.6245 179.566 38.6245 179.566C38.6245 179.566 54.1632 172.675 54.5573 159.206L85.8937 168.054L113.21 112.115L117.23 108.703L117.253 108.683L157.952 99.6147Z" fill="#3F3D56"/>
<path d="M281.58 336.113C283.241 334.661 284.531 332.895 285.36 330.94C286.189 328.985 286.537 326.888 286.38 324.797C286.222 322.706 285.562 320.672 284.447 318.839C283.332 317.005 281.789 315.416 279.926 314.184L296.181 265.436L268.291 272.965L257.131 318.102C255.063 321.087 254.271 324.659 254.904 328.14C255.537 331.621 257.551 334.77 260.564 336.99C263.578 339.21 267.382 340.347 271.255 340.185C275.129 340.024 278.803 338.575 281.58 336.113Z" fill="#FFD3D3"/>
<path d="M266.703 114.849L279.587 117.576C279.587 117.576 332.837 211.855 320.005 229.819C307.173 247.783 291.453 307.258 291.453 307.258C291.453 307.258 268.203 303.052 259.319 292.273L275.587 221.736L258.807 162.454L266.703 114.849Z" fill="#8E202D"/>
<path d="M22.284 254.851L22.7466 103.008C22.7598 99.9351 24.1121 96.992 26.5069 94.8249C28.9016 92.6578 32.1433 91.4436 35.5206 91.4486L161.541 91.7665C164.919 91.7786 168.153 93.0091 170.534 95.1883C172.916 97.3675 174.25 100.317 174.245 103.391L173.782 255.233C173.769 258.306 172.417 261.249 170.022 263.416C167.627 265.583 164.385 266.798 161.008 266.793L34.9874 266.475C31.61 266.463 28.3758 265.232 25.9943 263.053C23.6128 260.874 22.2784 257.924 22.284 254.851Z" fill="#E6E6E6"/>
<path d="M32.0904 209.012L32.3878 111.394C32.4001 108.516 33.6666 105.76 35.9094 103.73C38.1521 101.701 41.1881 100.563 44.3511 100.568L152.655 100.841C155.818 100.853 158.847 102.005 161.078 104.046C163.308 106.087 164.558 108.849 164.553 111.728L164.141 246.847C164.129 249.725 162.862 252.481 160.619 254.511C158.376 256.54 155.34 257.678 152.177 257.673L85.0853 257.504C70.9961 257.454 57.504 252.32 47.5689 243.229C37.6339 234.139 32.0673 221.833 32.0904 209.012Z" fill="white"/>
<path d="M140.245 143.448H55.7957C54.4519 143.448 53.1631 142.962 52.2128 142.097C51.2626 141.233 50.7288 140.06 50.7288 138.837C50.7288 137.614 51.2626 136.441 52.2128 135.577C53.1631 134.712 54.4519 134.226 55.7957 134.226H140.245C141.589 134.226 142.878 134.712 143.828 135.577C144.778 136.441 145.312 137.614 145.312 138.837C145.312 140.06 144.778 141.233 143.828 142.097C142.878 142.962 141.589 143.448 140.245 143.448Z" fill="#8E202D"/>
<path d="M74.3746 122.187H55.7957C54.4519 122.187 53.1631 121.701 52.2128 120.837C51.2626 119.972 50.7288 118.799 50.7288 117.576C50.7288 116.353 51.2626 115.181 52.2128 114.316C53.1631 113.451 54.4519 112.965 55.7957 112.965H74.3746C75.7184 112.965 77.0072 113.451 77.9575 114.316C78.9077 115.181 79.4416 116.353 79.4416 117.576C79.4416 118.799 78.9077 119.972 77.9575 120.837C77.0072 121.701 75.7184 122.187 74.3746 122.187Z" fill="#8E202D"/>
<path d="M140.245 164.709H55.7957C54.4519 164.709 53.1631 164.223 52.2128 163.358C51.2626 162.493 50.7288 161.321 50.7288 160.098C50.7288 158.875 51.2626 157.702 52.2128 156.838C53.1631 155.973 54.4519 155.487 55.7957 155.487H140.245C141.589 155.487 142.878 155.973 143.828 156.838C144.778 157.702 145.312 158.875 145.312 160.098C145.312 161.321 144.778 162.493 143.828 163.358C142.878 164.223 141.589 164.709 140.245 164.709Z" fill="#8E202D"/>
<path d="M140.245 185.969H55.7957C54.4519 185.969 53.1631 185.484 52.2128 184.619C51.2626 183.754 50.7288 182.582 50.7288 181.359C50.7288 180.136 51.2626 178.963 52.2128 178.098C53.1631 177.234 54.4519 176.748 55.7957 176.748H140.245C141.589 176.748 142.878 177.234 143.828 178.098C144.778 178.963 145.312 180.136 145.312 181.359C145.312 182.582 144.778 183.754 143.828 184.619C142.878 185.484 141.589 185.969 140.245 185.969Z" fill="#8E202D"/>
<path d="M133.412 241.991C144.547 241.991 153.573 233.777 153.573 223.644C153.573 213.512 144.547 205.298 133.412 205.298C122.277 205.298 113.25 213.512 113.25 223.644C113.25 233.777 122.277 241.991 133.412 241.991Z" fill="#8E202D"/>
<path d="M130.662 233.193C130.314 233.193 129.97 233.119 129.659 232.977C129.347 232.836 129.077 232.63 128.868 232.376L123.367 225.703C123.19 225.488 123.061 225.244 122.988 224.985C122.914 224.725 122.898 224.454 122.94 224.189C122.981 223.923 123.08 223.668 123.23 223.437C123.38 223.206 123.579 223.005 123.814 222.844C124.05 222.683 124.318 222.566 124.604 222.499C124.89 222.433 125.187 222.418 125.478 222.456C125.77 222.494 126.051 222.584 126.304 222.721C126.558 222.858 126.779 223.039 126.956 223.254L130.554 227.62L139.797 215.005C139.959 214.781 140.169 214.588 140.414 214.438C140.659 214.288 140.934 214.184 141.223 214.131C141.512 214.078 141.81 214.077 142.1 214.129C142.39 214.181 142.665 214.284 142.91 214.433C143.156 214.582 143.367 214.774 143.531 214.997C143.695 215.22 143.809 215.471 143.866 215.734C143.924 215.998 143.923 216.269 143.866 216.532C143.808 216.795 143.693 217.046 143.529 217.269L132.528 232.284C132.329 232.556 132.061 232.78 131.747 232.938C131.434 233.096 131.083 233.183 130.724 233.192C130.703 233.193 130.682 233.193 130.662 233.193Z" fill="white"/>
</svg>
