<svg width="129" height="131" viewBox="0 0 129 131" fill="none" xmlns="http://www.w3.org/2000/svg">
<path d="M41.143 86.5407L22.8526 80.9099C22.4883 80.797 22.1836 80.5409 22.0055 80.198C21.8273 79.8551 21.7902 79.4532 21.9023 79.0807C22.0143 78.7082 22.2665 78.3954 22.6034 78.211C22.9402 78.0266 23.3342 77.9857 23.699 78.0972L41.9894 83.728C42.3537 83.8409 42.6584 84.097 42.8366 84.4399C43.0147 84.7828 43.0518 85.1847 42.9397 85.5572C42.8276 85.9297 42.5755 86.2425 42.2386 86.4269C41.9018 86.6112 41.5078 86.6522 41.143 86.5407Z" fill="#E4E4E4"/>
<path d="M67.5252 120.041L6.19904 101.162C4.5561 100.654 3.189 99.4757 2.39768 97.8856C1.60635 96.2955 1.45542 94.4234 1.97799 92.6801L27.8885 6.57349C28.4148 4.83127 29.5713 3.36167 31.1043 2.4871C32.6373 1.61254 34.4215 1.40442 36.0657 1.90841L97.3918 20.7879C99.0348 21.2958 100.402 22.4741 101.193 24.0642C101.985 25.6543 102.135 27.5264 101.613 29.2698L75.7023 115.376C75.1761 117.119 74.0196 118.588 72.4866 119.463C70.9536 120.337 69.1693 120.545 67.5252 120.041Z" fill="#E6E6E6"/>
<path d="M46.8157 104.234L13.2024 93.8856C11.7063 93.4231 10.4545 92.373 9.7216 90.9657C8.98874 89.5583 8.83469 87.9087 9.29326 86.3787L31.5164 12.5262C31.9783 10.9973 33.0149 9.71419 34.3986 8.95849C35.7823 8.20279 37.4003 8.03618 38.8975 8.49521L91.6088 24.7226C93.105 25.1851 94.3568 26.2351 95.0897 27.6425C95.8226 29.0498 95.9766 30.6994 95.5181 32.2294L79.1677 86.5654C77.143 93.2669 72.5998 98.8907 66.5347 102.203C60.4696 105.515 53.378 106.246 46.8157 104.234Z" fill="white"/>
<path d="M82.0842 37.2822L39.8895 24.2924C39.7088 24.237 39.5406 24.1457 39.3948 24.0238C39.249 23.9019 39.1282 23.7518 39.0395 23.582C38.9508 23.4122 38.8959 23.226 38.8779 23.0342C38.8598 22.8423 38.879 22.6484 38.9343 22.4637C38.9897 22.2789 39.0801 22.1069 39.2004 21.9574C39.3207 21.808 39.4686 21.684 39.6355 21.5925C39.8025 21.501 39.9853 21.4439 40.1735 21.4244C40.3617 21.4049 40.5516 21.4234 40.7324 21.4788L82.9306 34.4696C83.2957 34.5815 83.6014 34.837 83.7806 35.18C83.9597 35.5229 83.9975 35.9252 83.8858 36.2983C83.774 36.6714 83.5218 36.9848 83.1846 37.1695C82.8474 37.3542 82.4528 37.3951 82.0877 37.2832L82.0842 37.2822Z" fill="#8E202D"/>
<path d="M80.4121 42.839L38.2174 29.8492C37.8524 29.7369 37.547 29.4809 37.3683 29.1377C37.1896 28.7946 37.1522 28.3922 37.2644 28.0192C37.3767 27.6462 37.6293 27.3332 37.9667 27.1489C38.3042 26.9646 38.6988 26.9242 39.0638 27.0365L81.2585 40.0263C81.6235 40.1387 81.929 40.3946 82.1077 40.7378C82.2864 41.081 82.3238 41.4834 82.2115 41.8563C82.0993 42.2293 81.8466 42.5424 81.5092 42.7267C81.1718 42.911 80.7771 42.9514 80.4121 42.839Z" fill="#8E202D"/>
<path d="M54.8355 41.0369L36.5451 35.4061C36.1801 35.2938 35.8746 35.0378 35.6959 34.6946C35.5172 34.3514 35.4798 33.9491 35.5921 33.5761C35.7043 33.2031 35.9569 32.8901 36.2944 32.7058C36.6318 32.5215 37.0265 32.4811 37.3914 32.5934L55.6818 38.2242C56.0468 38.3366 56.3523 38.5925 56.531 38.9357C56.7097 39.2789 56.7471 39.6812 56.6348 40.0542C56.5226 40.4272 56.27 40.7403 55.9325 40.9245C55.5951 41.1088 55.2005 41.1492 54.8355 41.0369Z" fill="#8E202D"/>
<path d="M75.2378 60.034L33.0431 47.0442C32.678 46.9324 32.3722 46.6768 32.1931 46.3339C32.014 45.991 31.9761 45.5887 32.0879 45.2156C32.1997 44.8425 32.4519 44.5291 32.7891 44.3444C33.1263 44.1597 33.5209 44.1188 33.886 44.2307L76.0841 57.2215C76.4492 57.3334 76.755 57.5889 76.9341 57.9319C77.1133 58.2748 77.1511 58.6771 77.0393 59.0502C76.9276 59.4233 76.6753 59.7367 76.3381 59.9214C76.0009 60.1061 75.6064 60.147 75.2413 60.0351L75.2378 60.034Z" fill="#E4E4E4"/>
<path d="M73.5657 65.5909L31.371 52.6012C31.006 52.4888 30.7006 52.2329 30.5218 51.8897C30.3431 51.5465 30.3058 51.1441 30.418 50.7711C30.5302 50.3982 30.7829 50.0851 31.1203 49.9008C31.4578 49.7165 31.8524 49.6761 32.2174 49.7885L74.4121 62.7783C74.7771 62.8906 75.0825 63.1466 75.2612 63.4897C75.44 63.8329 75.4773 64.2353 75.3651 64.6083C75.2528 64.9813 75.0002 65.2943 74.6628 65.4786C74.3253 65.6629 73.9307 65.7033 73.5657 65.5909Z" fill="#E4E4E4"/>
<path d="M47.9893 63.7888L29.6989 58.158C29.3339 58.0456 29.0284 57.7897 28.8497 57.4465C28.671 57.1033 28.6336 56.701 28.7459 56.328C28.8581 55.955 29.1107 55.6419 29.4482 55.4577C29.7856 55.2734 30.1803 55.233 30.5452 55.3453L48.8356 60.9761C49.2006 61.0885 49.5061 61.3444 49.6848 61.6876C49.8635 62.0308 49.9009 62.4331 49.7886 62.8061C49.6764 63.1791 49.4238 63.4921 49.0863 63.6764C48.7489 63.8607 48.3543 63.9011 47.9893 63.7888Z" fill="#E4E4E4"/>
<path d="M68.3916 82.7859L26.1969 69.7961C25.8318 69.6843 25.526 69.4287 25.3469 69.0858C25.1678 68.7428 25.1299 68.3406 25.2417 67.9675C25.3535 67.5944 25.6057 67.281 25.9429 67.0963C26.2801 66.9116 26.6747 66.8707 27.0398 66.9826L69.2379 79.9734C69.6031 80.0853 69.9088 80.3408 70.0879 80.6838C70.2671 81.0267 70.3049 81.429 70.1931 81.8021C70.0814 82.1752 69.8291 82.4886 69.4919 82.6733C69.1547 82.858 68.7602 82.8989 68.3951 82.787L68.3916 82.7859Z" fill="#E4E4E4"/>
<path d="M66.7195 88.3428L24.5248 75.353C24.1598 75.2407 23.8544 74.9847 23.6757 74.6415C23.4969 74.2984 23.4596 73.896 23.5718 73.523C23.6841 73.15 23.9367 72.837 24.2741 72.6527C24.6116 72.4684 25.0062 72.428 25.3712 72.5404L67.5659 85.5302C67.9309 85.6425 68.2363 85.8984 68.4151 86.2416C68.5938 86.5848 68.6311 86.9872 68.5189 87.3601C68.4067 87.7331 68.154 88.0462 67.8166 88.2305C67.4791 88.4148 67.0845 88.4552 66.7195 88.3428Z" fill="#E4E4E4"/>
<path d="M75.5851 127.991L18.5646 98.5637C17.0374 97.7732 15.9002 96.3717 15.4026 94.6667C14.905 92.9617 15.0875 91.0925 15.9101 89.469L56.6407 9.30217C57.4668 7.68049 58.865 6.43859 60.5285 5.84893C62.192 5.25926 63.9849 5.36999 65.514 6.15681L122.534 35.5846C124.062 36.3751 125.199 37.7765 125.696 39.4815C126.194 41.1865 126.012 43.0558 125.189 44.6793L84.4584 124.846C83.6323 126.468 82.2341 127.71 80.5706 128.299C78.9071 128.889 77.1142 128.778 75.5851 127.991Z" fill="#E6E6E6"/>
<path d="M57.9979 108.77L26.7446 92.6407C25.3538 91.9209 24.3075 90.6659 23.835 89.1512C23.3626 87.6364 23.5028 85.9855 24.2247 84.5607L59.1587 15.8027C59.8838 14.3795 61.1309 13.3 62.6265 12.801C64.1221 12.3019 65.744 12.4241 67.1364 13.1406L116.147 38.4345C117.538 39.1543 118.584 40.4092 119.057 41.924C119.529 43.4387 119.389 45.0896 118.667 46.5143L92.9647 97.1022C89.7867 103.34 84.3205 108.072 77.7652 110.259C71.2099 112.446 64.101 111.911 57.9979 108.77Z" fill="white"/>
<path d="M104.551 49.1116L65.319 28.8642C65.1508 28.7777 65.0015 28.6582 64.8795 28.5124C64.7575 28.3667 64.6653 28.1975 64.608 28.0147C64.5507 27.8319 64.5296 27.639 64.5458 27.4469C64.5619 27.2549 64.6151 27.0675 64.7023 26.8954C64.7894 26.7234 64.9088 26.5701 65.0537 26.4442C65.1985 26.3184 65.366 26.2225 65.5465 26.162C65.727 26.1015 65.917 26.0776 66.1057 26.0917C66.2944 26.1058 66.478 26.1575 66.6462 26.244L105.882 46.4931C106.221 46.6678 106.477 46.9734 106.593 47.3426C106.708 47.7118 106.674 48.1144 106.498 48.4619C106.322 48.8093 106.019 49.0732 105.654 49.1953C105.29 49.3175 104.894 49.288 104.554 49.1133L104.551 49.1116Z" fill="#8E202D"/>
<path d="M101.922 54.2852L62.6902 34.0378C62.3508 33.8626 62.0954 33.5567 61.9802 33.1873C61.865 32.8179 61.8994 32.4153 62.0759 32.0681C62.2523 31.7208 62.5563 31.4573 62.921 31.3356C63.2857 31.2139 63.6813 31.244 64.0206 31.4191L103.253 51.6665C103.592 51.8417 103.848 52.1476 103.963 52.517C104.078 52.8863 104.044 53.289 103.867 53.6362C103.691 53.9835 103.387 54.2469 103.022 54.3686C102.657 54.4903 102.262 54.4603 101.922 54.2852Z" fill="#8E202D"/>
<path d="M77.068 47.988L60.0618 39.2113C59.7224 39.0361 59.467 38.7302 59.3518 38.3608C59.2366 37.9914 59.271 37.5888 59.4474 37.2416C59.6239 36.8943 59.9279 36.6309 60.2926 36.5092C60.6573 36.3875 61.0529 36.4175 61.3922 36.5926L78.3985 45.3694C78.7378 45.5445 78.9932 45.8504 79.1084 46.2198C79.2236 46.5892 79.1892 46.9918 79.0128 47.3391C78.8364 47.6863 78.5324 47.9498 78.1676 48.0715C77.8029 48.1932 77.4074 48.1632 77.068 47.988Z" fill="#8E202D"/>
<path d="M93.7888 70.2941L54.5565 50.0466C54.217 49.8719 53.9612 49.5664 53.8456 49.1972C53.7299 48.8279 53.7638 48.4253 53.9398 48.0779C54.1158 47.7304 54.4195 47.4666 54.784 47.3444C55.1486 47.2223 55.5442 47.2518 55.8837 47.4265L95.1192 67.6755C95.4588 67.8502 95.7145 68.1558 95.8301 68.525C95.9458 68.8942 95.9119 69.2969 95.7359 69.6443C95.5599 69.9918 95.2562 70.2556 94.8917 70.3778C94.5271 70.4999 94.1316 70.4704 93.792 70.2957L93.7888 70.2941Z" fill="#E4E4E4"/>
<path d="M91.1602 75.4676L51.928 55.2202C51.5886 55.045 51.3332 54.7391 51.218 54.3697C51.1028 54.0004 51.1372 53.5977 51.3136 53.2505C51.4901 52.9032 51.7941 52.6398 52.1588 52.5181C52.5235 52.3964 52.9191 52.4264 53.2584 52.6015L92.4907 72.8489C92.8301 73.0241 93.0854 73.33 93.2007 73.6994C93.3159 74.0688 93.2815 74.4714 93.105 74.8186C92.9286 75.1659 92.6246 75.4294 92.2599 75.5511C91.8952 75.6728 91.4996 75.6427 91.1602 75.4676Z" fill="#E4E4E4"/>
<path d="M66.3058 69.1705L49.2996 60.3937C48.9602 60.2186 48.7048 59.9127 48.5896 59.5433C48.4744 59.1739 48.5088 58.7713 48.6852 58.424C48.8617 58.0768 49.1657 57.8133 49.5304 57.6916C49.8951 57.5699 50.2907 57.5999 50.63 57.7751L67.6363 66.5518C67.9756 66.727 68.231 67.0329 68.3462 67.4023C68.4614 67.7717 68.427 68.1743 68.2506 68.5215C68.0742 68.8688 67.7702 69.1322 67.4054 69.2539C67.0407 69.3756 66.6452 69.3456 66.3058 69.1705Z" fill="#E4E4E4"/>
<path d="M83.0266 91.4765L43.7943 71.2291C43.4548 71.0544 43.199 70.7488 43.0834 70.3796C42.9677 70.0104 43.0016 69.6078 43.1776 69.2603C43.3536 68.9128 43.6573 68.649 44.0218 68.5268C44.3864 68.4047 44.782 68.4342 45.1215 68.6089L84.357 88.858C84.6965 89.0327 84.9523 89.3382 85.0679 89.7075C85.1836 90.0767 85.1497 90.4793 84.9737 90.8268C84.7977 91.1742 84.494 91.438 84.1295 91.5602C83.7649 91.6823 83.3694 91.6528 83.0298 91.4781L83.0266 91.4765Z" fill="#E4E4E4"/>
<path d="M80.398 96.6501L41.1658 76.4026C40.8264 76.2275 40.571 75.9216 40.4558 75.5522C40.3406 75.1828 40.375 74.7802 40.5514 74.4329C40.7279 74.0857 41.0319 73.8222 41.3966 73.7005C41.7613 73.5788 42.1569 73.6089 42.4962 73.784L81.7285 94.0314C82.0679 94.2066 82.3232 94.5125 82.4385 94.8818C82.5537 95.2512 82.5193 95.6538 82.3428 96.0011C82.1664 96.3484 81.8624 96.6118 81.4977 96.7335C81.133 96.8552 80.7374 96.8252 80.398 96.6501Z" fill="#E4E4E4"/>
<path d="M55.5436 90.3529L38.5373 81.5762C38.1987 81.4006 37.9442 81.0947 37.8294 80.7256C37.7147 80.3566 37.7493 79.9546 37.9255 79.6077C38.1017 79.2609 38.4052 78.9977 38.7693 78.8757C39.1335 78.7538 39.5285 78.7832 39.8678 78.9575L56.8741 87.7343C57.2127 87.9099 57.4673 88.2157 57.582 88.5848C57.6967 88.9538 57.6621 89.3559 57.4859 89.7027C57.3097 90.0495 57.0062 90.3128 56.6421 90.4347C56.2779 90.5566 55.8829 90.5272 55.5436 90.3529Z" fill="#E4E4E4"/>
</svg>
