<svg xmlns="http://www.w3.org/2000/svg" width="39.58" height="40" viewBox="0 0 94.908 95.899">         <g id="Group_61" data-name="Group 61" transform="translate(-1610.771 -321.435)">             <path id="Path_145" data-name="Path 145" d="M1673.322,415.737c2.145-2.827,3.13-5.472,1.907-8.671a22.523,22.523,0,0,1-.993-4.409,3.277,3.277,0,0,1,.123-2.166c2.069-2.816,3.905-5.8,7.418-7.3,3.819-1.62,9.039,2.164,9.234,7.241.209,5.452.047,10.918.047,16.59a20.678,20.678,0,0,1-2.208.243c-10.29.016-20.582-.054-30.871.064-2.306.026-2.96-.725-2.843-2.933.258-4.887.129-9.8.515-14.674a7.641,7.641,0,0,1,6.822-6.885c1.809-.274,6.882,2.879,7.527,4.676.095.264.122.643.313.77,3.269,2.178,2.053,5.073,1.2,7.834C1670.461,409.553,1670.641,412.687,1673.322,415.737Z" fill="currentColor"></path>             <path id="Path_146" data-name="Path 146" d="M1620.7,327.109v4.5h-5.578v57.1h20.264v4.172h-6.045c-4.244,0-8.489.015-12.733,0-4.193-.019-5.828-1.619-5.831-5.756q-.018-26.739-.005-53.48c0-4.922,1.625-6.519,6.614-6.536C1618.419,327.106,1619.45,327.109,1620.7,327.109Z" fill="currentColor"></path>             <path id="Path_147" data-name="Path 147" d="M1673.235,394.176c-5.561-.022-10.621-4.919-10.69-10.344-.07-5.459,5.462-10.94,10.932-10.833,5.262.1,10.732,5.321,10.488,10.639A10.636,10.636,0,0,1,1673.235,394.176Z" fill="currentColor"></path>             <path id="Path_148" data-name="Path 148" d="M1656.93,331.6h-5.755v-4.443a46.818,46.818,0,0,1,5.287.036,5.372,5.372,0,0,1,4.914,5.593c.068,13.694.009,27.387.056,41.081.005,1.728-.814,1.986-2.27,2.026-1.695.047-2.327-.511-2.318-2.269.073-13.409.067-26.818.086-40.228C1656.931,332.939,1656.93,332.483,1656.93,331.6Z" fill="currentColor"></path>             <path id="Path_149" data-name="Path 149" d="M1628.2,325.645c.586-3.725,1.126-4.191,4.9-4.2,1.983-.007,3.966-.014,5.949,0,3.4.027,4.062.644,4.951,3.583,1.119,1.214,2.89,2.272,3.224,3.673.765,3.2-.371,4.231-3.716,4.241-4.816.016-9.632.03-14.448-.008-1.9-.015-4.186.576-4.615-2.363C1623.991,327.421,1624.7,326.5,1628.2,325.645Z" fill="currentColor"></path>             <path id="Path_150" data-name="Path 150" d="M1620.674,343.936v-4.278h30.386v4.278Z" fill="currentColor"></path>             <path id="Path_151" data-name="Path 151" d="M1693.527,402.782l1.184,1.736c.3-.091.534-.088.624-.2a5.449,5.449,0,0,0,.591-5.879c-1.435-3.4,1.819-6.671,4.92-7.326,1.968-.415,4.558,2.014,4.73,4.682.2,3.081.047,6.185.047,9.622h-12.4l-.293-2.487Z" fill="currentColor"></path>             <path id="Path_152" data-name="Path 152" d="M1651.691,404.142l1.73-2.248.195,2.871h-12.559c0-3.3-.2-6.663.07-9.983.19-2.309,3.111-4.566,4.88-4.145,2.652.631,5.62,3.8,4.865,6.391C1650.185,399.38,1649.11,401.89,1651.691,404.142Z" fill="currentColor"></path>             <path id="Path_153" data-name="Path 153" d="M1620.676,353.2v-3.97h30.378v3.97Z" fill="currentColor"></path>             <path id="Path_154" data-name="Path 154" d="M1651.681,378.655c3.149.022,6.434,3.377,6.295,6.43s-3.257,6.149-6.248,6.178a6.314,6.314,0,0,1-6.285-6.274A6.594,6.594,0,0,1,1651.681,378.655Z" fill="currentColor"></path>             <path id="Path_155" data-name="Path 155" d="M1694.876,391.749c-3.121-.006-6.207-3.181-6.26-6.442-.047-2.86,3.275-6.133,6.235-6.144a6.327,6.327,0,0,1,6.3,6.2C1701.08,388.631,1698.012,391.754,1694.876,391.749Z" fill="currentColor"></path>             <path id="Path_156" data-name="Path 156" d="M1638.9,380.857l-3.7-3.177,11.922-14.569,3.9,3.008C1646.949,371.061,1642.995,375.872,1638.9,380.857Z" fill="currentColor"></path>             <path id="Path_157" data-name="Path 157" d="M1637.611,358.937v4.425c-5.274,0-10.51.143-15.718-.176-.67-.041-1.194-2.478-1.985-4.249Z" fill="currentColor"></path>             <path id="Path_158" data-name="Path 158" d="M1653.051,399.437a5.54,5.54,0,0,1,1.135-7.091c1.324-1.133,3.213-3.07,5.219-1.158C1657.252,393.982,1655.089,396.79,1653.051,399.437Z" fill="currentColor"></path>             <path id="Path_159" data-name="Path 159" d="M1687.667,391.454c1.935-1.349,3.628.337,4.773,1.372a5.3,5.3,0,0,1,1.039,6.9C1691.661,397.14,1689.748,394.415,1687.667,391.454Z" fill="currentColor"></path>         </g>     </svg>
