<svg xmlns="http://www.w3.org/2000/svg" width="42.83" height="40" viewBox="0 0 87.63 81.826">         <g id="Group_68" data-name="Group 68" transform="translate(-997.797 -939.729)">             <path id="Path_183" data-name="Path 183" d="M1020.12,1021.555c-.673-.127-1.351-.234-2.019-.384a10.619,10.619,0,0,1-8.52-9.633,47.71,47.71,0,0,1,2.04-16.854,18.273,18.273,0,0,1,4.916-7.954,12.483,12.483,0,0,1,8.683-3.14,2.017,2.017,0,0,1,.98.348c1.242.775,2.449,1.6,3.694,2.374a23.193,23.193,0,0,0,8.8,3.381,19.613,19.613,0,0,0,11.988-1.963,39.563,39.563,0,0,0,5.2-3.125,5.393,5.393,0,0,1,4.27-.891c4.613.716,7.739,3.4,9.893,7.379a29.3,29.3,0,0,1,2.908,8.949,50.4,50.4,0,0,1,.768,10.331c-.183,5.994-3.815,10.1-9.637,11-.328.05-.653.121-.979.183Z" fill="currentColor"></path>             <path id="Path_184" data-name="Path 184" d="M1085.427,980.3c-.083.32-.16.642-.25.961a6.662,6.662,0,0,1-4.932,4.7,14.3,14.3,0,0,1-3.417.511c-1.993.081-3.992.029-5.988.014a.867.867,0,0,1-.587-.209,16.282,16.282,0,0,0-11.9-5.62,21.588,21.588,0,0,0,3.124-7,19.96,19.96,0,0,0,.337-7.656,3.141,3.141,0,0,1,.327.065,17.552,17.552,0,0,0,13.8-1.092c.936-.463,1.878-.922,2.774-1.455a2.635,2.635,0,0,1,2.828.079,4.921,4.921,0,0,1,1.925,2.172,16.652,16.652,0,0,1,1.553,5.643c.152,1.211.214,2.434.321,3.652a.828.828,0,0,0,.077.211Z" fill="currentColor"></path>             <path id="Path_185" data-name="Path 185" d="M1016.063,939.729c.672.123,1.352.215,2.015.375a11.682,11.682,0,1,1-3.775-.291,1.688,1.688,0,0,0,.311-.084Z" fill="currentColor"></path>             <path id="Path_186" data-name="Path 186" d="M1068.617,939.729c.672.122,1.352.212,2.016.37a11.683,11.683,0,1,1-10.957,19.652,11.07,11.07,0,0,1-2.885-11.862,11.276,11.276,0,0,1,9.354-7.984c.34-.061.682-.118,1.023-.176Z" fill="currentColor"></path>             <path id="Path_187" data-name="Path 187" d="M1041.607,986.5a17.534,17.534,0,1,1,17.543-17.455A17.562,17.562,0,0,1,1041.607,986.5Z" fill="currentColor"></path>             <path id="Path_188" data-name="Path 188" d="M1021.4,965.973a20.527,20.527,0,0,0,3.421,14.63c-1.018.152-2.035.254-3.029.462a15.7,15.7,0,0,0-8.7,5.108.875.875,0,0,1-.736.336c-2.221-.018-4.444.043-6.662-.04a9.017,9.017,0,0,1-5.616-2.019,6.312,6.312,0,0,1-2.273-5.013,44.162,44.162,0,0,1,.877-10.693,10.434,10.434,0,0,1,1.659-3.925,3.6,3.6,0,0,1,2.616-1.635,2.5,2.5,0,0,1,1.2.206c1.662.767,3.264,1.673,4.954,2.363a16.754,16.754,0,0,0,11.84.353C1021.065,966.066,1021.188,966.035,1021.4,965.973Z" fill="currentColor"></path>         </g>     </svg>
