<?xml version="1.0" encoding="utf-8"?>
<svg xmlns="http://www.w3.org/2000/svg" viewBox="0 0 500 500" xmlns:bx="https://boxy-svg.com">
  <defs>
    <linearGradient id="color-0" bx:pinned="true" gradientUnits="userSpaceOnUse">
      <stop style="stop-color: rgb(0, 66, 37);"/>
    </linearGradient>
    <linearGradient id="color-1" bx:pinned="true" gradientUnits="userSpaceOnUse" gradientTransform="matrix(0.749154, 0, 0, 0.408247, -44.389264, 112.193194)">
      <stop style="stop-color: rgb(142, 32, 45);"/>
    </linearGradient>
    <linearGradient id="color-2" gradientUnits="userSpaceOnUse" bx:pinned="true">
      <stop style="stop-color: rgb(255, 182, 182)"/>
    </linearGradient>
    <bx:export>
      <bx:file format="svg" path="people.svg"/>
    </bx:export>
  </defs>
  <g style="" transform="matrix(1.211443, 0, 0, 1.211443, -49.524216, -58.411999)">
    <path d="M 451.343 310.476 C 451.343 423.257 262.744 446.422 152.838 446.422 C 42.932 446.422 48.709 338.797 48.709 226.015 C 48.709 113.233 86.869 53.578 196.775 53.578 C 306.681 53.578 451.343 197.694 451.343 310.476 Z" style="fill-opacity: 0.5; fill: rgb(0, 89, 50);"/>
    <path d="M 351.08 143.757 C 347.611 131.105 375.6 120.256 382.949 130.445 C 383.971 128.996 387.748 128.116 389.481 128.56 C 391.215 129.004 392.672 130.116 394.094 131.191 C 396.049 132.693 398.075 134.248 399.274 136.408 C 400.483 138.558 400.67 141.491 399.044 143.357 C 397.755 144.841 393.951 145.801 392.014 146.192 C 390.664 146.468 389.526 146.689 388.548 146.85 C 387.661 145.571 387.251 144.019 387.393 142.469 C 386.061 143.367 385.2 144.815 385.046 146.415 C 385.02 146.744 395.969 187.028 395.969 187.028 C 394.653 187.777 393.269 188.398 391.836 188.885 C 389.001 184.552 386.83 179.819 385.393 174.844 C 385.063 178.171 385.105 181.524 385.518 184.842 C 385.737 186.702 386.052 188.55 386.46 190.378 C 373.449 193.187 353.88 192.262 345.366 180.318 C 345.365 180.269 345.363 180.22 345.362 180.17 C 345.34 178.605 343.633 177.651 342.289 178.453 C 341.9 178.685 341.6 179.039 341.436 179.461 C 341.229 179.988 341.039 180.444 340.869 180.807 C 338.39 171.938 341.598 161.673 351.08 143.757 Z" style="fill: rgb(162, 126, 137);"/>
    <path d="M 328.941 355.873 L 328.941 356.287 C 328.925 356.149 328.925 356.011 328.941 355.873 Z" fill="#2f2e41" style=""/>
    <path d="M 341.682 284.271 C 342.013 284.182 342.35 284.116 342.69 284.075 C 342.3 284.139 341.963 284.204 341.682 284.271 Z" fill="#2f2e41" style=""/>
    <path d="M 341.387 284.346 C 341.476 284.321 341.576 284.296 341.682 284.271 C 341.583 284.297 341.489 284.316 341.387 284.346 Z" fill="#2f2e41" style=""/>
    <path d="M 435.52 397.332 L 387.83 397.332 C 386.428 396.213 386.002 394.264 386.809 392.662 C 388.112 389.674 385.559 386.943 385.559 386.943 C 383.799 384.881 383.186 382.076 383.924 379.467 C 385.188 375.054 380.236 362.598 380.236 362.598 C 380.236 362.598 377.567 378.682 374.296 397.332 L 328.941 397.332 C 327.393 394.696 327.393 391.43 328.941 388.795 C 331.584 384.313 328.941 383.454 328.941 383.454 C 328.941 383.454 326.298 378.439 328.941 374.797 C 331.584 371.156 328.941 356.287 328.941 356.287 C 329.04 356.945 329.794 355.75 330.953 353.243 C 332.718 349.431 335.415 342.574 338.14 334.614 C 340.088 328.932 342.052 322.682 343.694 316.569 L 343.698 316.569 C 344.128 314.964 344.536 313.373 344.921 311.797 C 345.674 308.705 346.32 305.701 346.81 302.88 C 347.873 296.804 348.224 291.585 347.407 288.191 C 346.729 285.366 345.248 283.808 342.69 284.075 C 344.06 283.848 346.069 283.633 348.543 283.429 C 348.989 283.394 349.451 283.358 349.929 283.318 C 368.384 281.924 407.978 281.123 407.978 281.123 L 420.105 302.84 L 435.464 330.351 C 435.464 330.351 435.046 367.256 435.52 397.332 Z" style="" fill="#2f2e41"/>
    <path d="M 384.618 187.256 L 356.677 181.329 L 351.129 192.497 L 332.446 203.312 C 332.446 203.312 344.489 252.552 344.421 259.476 C 344.246 277.058 316.114 316.473 337.363 313.44 C 358.612 310.409 362.929 297.708 369.75 299.716 C 375.902 301.527 383.414 309.584 388.443 303.822 C 393.472 298.059 395.244 304.714 398.424 304.943 C 399.935 305.053 399.025 297.667 402.827 305.173 C 406.63 312.679 426.793 302.575 419.959 295.741 C 408.577 284.359 406.264 200.459 406.264 200.459 L 393.594 196.561 L 384.618 187.256 Z" style="fill: url(&quot;#color-0&quot;);"/>
    <path d="M 331.918 366.071 C 334.252 363.288 333.946 359.152 331.227 356.742 C 330.958 356.511 330.67 356.303 330.366 356.119 L 335.037 333.191 L 324.237 326.727 L 321.234 358.827 C 319.867 361.54 320.5 364.833 322.775 366.846 C 325.446 369.163 329.488 368.876 331.805 366.206 C 331.843 366.162 331.881 366.117 331.918 366.071 Z" style="fill: url(&quot;#color-2&quot;);"/>
    <path d="M 365.452 245.218 C 365.383 244.481 364.443 244.146 363.141 243.684 C 361.832 243.281 360.588 242.692 359.447 241.935 C 356.563 239.852 357.698 237.672 359.268 234.66 C 359.575 234.074 359.894 233.465 360.192 232.831 C 361.081 230.955 359.666 223.214 355.981 209.819 C 354.845 205.696 354.849 202.783 354.064 200.851 C 353.284 198.918 351.718 197.966 347.451 197.767 C 342.294 197.507 337.243 199.302 333.407 202.759 C 333.304 202.851 333.196 202.951 333.092 203.046 C 332.897 203.23 332.706 203.417 332.519 203.607 C 328.971 207.177 326.941 211.98 326.853 217.01 L 326.833 217.867 L 325.953 258.792 L 323.479 294.705 L 320.068 344.176 L 322.595 344.299 L 332.674 344.801 L 333.897 344.861 L 336.797 332.693 L 340.288 318.052 L 341.57 312.673 L 345.551 295.988 L 347.407 288.191 L 348.543 283.429 L 349.005 281.486 L 351.259 272.035 C 351.312 271.836 356.499 251.37 362.479 247.947 C 364.71 246.672 365.515 245.931 365.452 245.218 Z" style="fill: url(&quot;#color-0&quot;);"/>
    <path d="M 432.548 365.828 C 429.929 363.311 429.789 359.166 432.233 356.478 C 432.477 356.22 432.741 355.981 433.023 355.766 L 425.916 333.472 L 435.959 325.886 L 442.393 357.477 C 444.043 360.028 443.768 363.37 441.721 365.615 C 439.316 368.206 435.266 368.355 432.676 365.949 C 432.633 365.91 432.59 365.869 432.548 365.828 Z" style="fill: url(&quot;#color-2&quot;);"/>
    <path d="M 437.462 317.454 C 437.462 317.454 429.628 289.894 432.017 286.911 C 434.406 283.927 427.352 283.344 430.391 277.789 C 433.432 272.232 429.235 271.303 429.235 271.303 L 426.958 258.528 L 422.887 227.148 L 422.763 226.214 L 421.58 217.085 C 420.912 211.816 418.128 207.047 413.871 203.872 C 413.763 203.789 413.653 203.71 413.543 203.632 C 413.042 203.27 412.53 202.936 412.007 202.629 C 408.099 200.323 403.51 199.451 399.03 200.163 C 390.586 201.478 393.214 204.626 391.845 213.061 C 389.62 226.777 389.042 234.623 390.127 236.396 C 390.492 236.993 390.877 237.564 391.243 238.112 C 393.128 240.942 394.491 242.983 391.846 245.369 C 390.791 246.242 389.618 246.959 388.362 247.501 C 387.119 248.103 386.218 248.535 386.23 249.275 C 386.244 249.992 387.123 250.639 389.477 251.667 C 392.329 252.915 395.392 257.634 397.902 262.454 C 399.892 266.34 401.667 270.332 403.219 274.413 L 424.785 335.063 L 428.302 344.954 L 429.515 344.762 L 439.479 343.182 L 441.978 342.787 L 437.462 317.454 Z" style="fill: url(&quot;#color-0&quot;);"/>
    <circle cx="372.829" cy="158.115" r="22.796" style="fill: url(&quot;#color-2&quot;);"/>
    <path d="M 338.639 145.535 C 335.168 132.883 363.158 122.033 370.508 132.222 C 371.53 130.773 375.307 129.894 377.04 130.338 C 378.772 130.782 380.23 131.893 381.652 132.968 C 383.607 134.47 385.633 136.025 386.833 138.185 C 388.042 140.335 388.228 143.269 386.602 145.135 C 385.314 146.619 381.51 147.579 379.572 147.97 C 378.221 148.245 377.084 148.467 376.106 148.627 C 375.218 147.347 374.809 145.797 374.951 144.246 C 373.619 145.145 372.758 146.592 372.605 148.192 C 372.578 148.52 383.527 188.805 383.527 188.805 C 382.212 189.554 380.828 190.176 379.395 190.662 C 376.559 186.33 374.387 181.597 372.952 176.622 C 372.621 179.948 372.663 183.301 373.076 186.619 C 373.295 188.479 373.61 190.327 374.018 192.156 C 361.007 194.964 341.438 194.04 332.924 182.096 C 332.923 182.046 332.922 181.997 332.92 181.947 C 332.898 180.383 331.191 179.429 329.847 180.23 C 329.458 180.462 329.158 180.817 328.994 181.239 C 328.788 181.765 328.597 182.221 328.428 182.585 C 325.948 173.715 329.157 163.451 338.639 145.535 Z" style="fill: rgb(162, 126, 137);"/>
    <path d="M 138.503 130.445 C 138.08 131.432 125.019 131.326 124.421 132.205 C 119.808 138.991 136.434 167.864 131.822 174.659 L 131.179 175.425 C 132.685 174.731 134.13 173.916 135.502 172.987 C 135.624 170.205 135.748 167.416 135.879 164.634 C 137.261 166.401 138.376 168.361 139.189 170.452 C 140.262 169.695 141.144 168.291 145.746 165.532 C 147.609 163.485 149.758 161.717 152.124 160.282 L 138.503 130.445 Z" style="fill: rgb(222, 187, 156);"/>
    <path d="M 147.987 186.06 C 141.776 182.013 133.426 185.274 131.599 192.459 L 111.751 244.174 L 77.635 224.806 C 77.09 216.693 67.967 212.214 61.214 216.742 C 54.462 221.272 55.144 231.412 62.442 234.995 C 65.135 236.318 68.263 236.432 71.046 235.311 C 78.231 242.979 109.378 274.417 122.273 262.134 C 133.111 251.808 148.754 211.792 152.518 197.973 C 153.756 193.439 151.925 188.626 147.987 186.06 Z" style="fill: rgb(252, 168, 153);"/>
    <polygon points="110.719 264.301 116.982 292.61 162.782 296.752 166.991 272.102 110.719 264.301" fill="#ffb6b6" style=""/>
    <path d="M 180.679 336.896 C 180.657 337.302 180.633 337.703 180.603 338.109 C 180.164 343.975 179.662 350.741 179.118 358.155 C 178.26 369.92 177.302 383.316 176.335 397.332 L 80.271 397.332 L 98.902 341.333 C 98.902 341.333 106.424 337.191 102.594 330.233 C 98.765 323.276 106.3 328.82 106.37 318.884 C 106.44 308.947 113.193 298.376 113.193 298.376 L 114.302 283.331 L 114.934 283.343 L 164.926 284.175 L 165.838 284.193 L 167.374 297.108 C 176.696 308.202 181.453 322.425 180.679 336.896 Z" style="" fill="#2f2e41"/>
    <path d="M 139.304 172.533 L 162.1 171.167 L 172.689 190.637 C 172.689 190.637 192.611 194.512 191.23 221.83 C 189.849 249.15 166.991 273.122 166.991 273.122 L 167.968 269.223 L 166.271 274.866 L 166.488 278.034 L 168.804 281.39 L 169.042 284.86 L 166.991 290.351 C 168.089 292.4 166.87 295.065 164.796 295.147 C 164.675 295.152 164.554 295.147 164.435 295.133 L 131.495 291.292 C 130.745 288.891 130.144 286.018 127.137 290.8 L 124.034 290.451 L 111.135 288.996 L 110.376 285.777 C 109.502 282.072 110.145 278.104 112.12 275.024 C 110.999 270.942 111.293 266.51 112.937 262.676 L 112.999 262.533 L 114.368 261.204 C 114.368 261.204 99.383 235.003 116.586 215.271 L 123.491 201.611 L 131.216 190.641 L 139.304 172.533 Z" style="fill: url(&quot;#color-1&quot;);"/>
    <circle cx="144.978" cy="140.847" r="21.617" style="fill: rgb(252, 168, 153);"/>
    <path d="M 161.396 171.988 C 159.636 170.517 158.41 168.506 157.911 166.267 C 157.511 168.986 157.615 171.754 158.219 174.436 C 157.048 175.316 155.913 176.151 154.839 176.908 C 154.026 174.817 152.911 172.858 151.53 171.09 C 151.397 173.872 151.274 176.662 151.151 179.443 C 149.779 180.373 148.334 181.188 146.829 181.881 L 147.472 181.115 C 152.084 174.321 140.149 161.814 144.761 155.028 C 146.055 153.127 140.21 138.102 135.757 137.425 C 131.797 136.826 131.964 137.97 128.126 138.806 C 127.728 137.145 127.109 135.543 126.287 134.045 C 126.506 135.714 126.455 137.408 126.137 139.062 C 124.772 139.114 123.699 138.245 122.246 138.023 C 112.979 136.606 113.92 126.581 116.499 123.404 C 119.087 120.235 127.677 119.284 131.638 118.255 C 131.999 117.902 132.818 118.123 133.179 117.788 C 140.769 110.841 150.921 109.691 160.056 112.77 C 169.799 116.053 175.873 122.408 178.99 132.205 L 179.885 140.045 C 180.687 142.566 179.678 154.295 178.99 156.85 C 176.319 166.78 170.63 161.822 161.396 171.988 Z" style="fill: rgb(222, 187, 156);"/>
    <path d="M 192.916 274.407 L 192.065 208.124 C 191.973 202.282 187.211 197.594 181.367 197.594 C 175.235 197.594 170.358 202.738 170.682 208.861 L 173.677 277.685 L 173.735 319.582 C 167.117 322.387 166.019 331.304 171.758 335.632 C 177.497 339.959 185.768 336.452 186.646 329.319 C 186.916 327.131 186.402 324.918 185.197 323.073 L 192.916 274.407 Z" style="fill: rgb(252, 168, 153);"/>
    <path d="M 304.486 360.16 C 304.486 360.16 303.17 383.833 302.565 397.333 L 257.252 397.333 C 256.319 385.047 256.005 376.02 256.005 376.02 L 253.525 397.333 L 207.722 397.333 L 204.882 357.86 L 218.605 323.845 C 218.605 323.845 292.971 318.688 299.869 325.23 C 306.762 331.768 304.486 360.16 304.486 360.16 Z" style="" fill="#2f2e41"/>
    <circle cx="264.416" cy="136.271" r="24.752" fill="#ffb6b6" style=""/>
    <path d="M 293.266 128.228 C 290.724 129.388 289.077 137.784 287.079 135.832 C 285.081 133.88 285.214 131.339 282.52 130.619 C 280.344 130.035 278.003 130.703 276.019 131.756 C 275.664 131.942 275.32 132.144 274.986 132.344 C 274.765 132.197 274.545 132.058 274.309 131.93 C 272.534 130.98 270.462 130.747 268.52 131.279 C 270.054 131.793 271.388 132.776 272.334 134.089 C 271.67 134.534 270.997 134.98 270.308 135.376 C 264.56 138.693 256.38 131.48 250.329 128.77 C 254.119 135.882 252.253 138.828 248.962 146.184 L 248.848 146.603 C 249.035 144.759 243.33 143.385 243.661 145.98 C 243.896 147.823 245.491 151.918 246.384 153.545 C 240.022 146.189 235.675 137.187 236.592 127.901 C 236.792 125.951 236.732 123.892 237.738 122.199 C 238.745 120.515 240.845 119.332 242.703 119.975 C 242.032 107.36 255.269 98.749 266.53 104.476 C 266.827 104.628 267.12 104.788 267.408 104.958 C 269.783 106.351 271.767 108.322 273.944 110.023 C 276.121 111.724 278.631 113.206 281.392 113.346 C 283.143 113.431 285.049 113.003 286.553 113.91 C 288.296 114.963 288.595 117.167 288.857 119.287 C 287.302 119.441 285.828 120.054 284.624 121.049 C 286.232 120.885 287.852 121.232 289.252 122.041 C 289.278 122.053 289.303 122.068 289.327 122.085 C 290.249 125.589 290.154 126.365 293.266 128.228 Z" fill="#2f2e41" style=""/>
    <path d="M 207.832 335.82 C 228.91 311.147 221.791 279.766 213.425 248.089 L 215.017 201.291 C 215.176 196.632 217.592 192.343 221.494 189.793 L 243.013 175.735 L 251.388 163.626 L 274.474 165.935 L 287.277 179.473 L 301.447 190.291 C 308.711 195.838 312.097 205.096 310.124 214.02 L 296.563 275.347 C 296.563 275.347 302.235 307.139 298.774 310.65 C 295.313 314.161 286.396 310.652 293.467 314.594 C 301.954 319.324 309.67 318.45 305.376 322.745 C 301.081 327.04 306.516 333.01 306.516 333.01 L 207.832 335.82 Z" style="fill: url(&quot;#color-1&quot;);"/>
    <path d="M 216.844 371.677 L 220.358 346.643 L 206.337 342.639 L 203.563 369.241 C 198.762 373.643 200.527 381.593 206.741 383.551 C 212.954 385.507 218.957 380.004 217.545 373.644 C 217.393 372.962 217.158 372.301 216.844 371.677 Z" fill="#ffb6b6" style=""/>
    <path d="M 243.538 180.248 C 243.538 180.248 203.627 193.238 202.676 202.742 C 201.724 212.246 202.04 218.065 197.828 256.097 L 198.05 358.547 C 198.05 358.547 224.808 364.275 222.063 358.151 C 219.319 352.025 220.277 349.143 220.277 349.143 C 220.277 349.143 226.014 346.88 224.577 339.687 C 223.141 332.495 230.343 296.854 230.343 296.854 L 234.889 232.934 L 243.538 180.248 Z" style="fill: url(&quot;#color-1&quot;);"/>
    <path d="M 292.749 370.351 L 290.88 345.14 L 305.133 342.063 L 306.161 368.788 C 310.665 373.495 308.384 381.313 302.056 382.859 C 295.727 384.406 290.098 378.522 291.922 372.268 C 292.118 371.598 292.396 370.954 292.749 370.351 Z" fill="#ffb6b6" style=""/>
    <path d="M 278.625 177.586 C 278.625 177.586 317.602 193.157 317.93 202.703 C 318.258 212.25 317.564 218.036 319.281 256.261 L 312.362 358.478 C 312.362 358.478 285.287 362.445 288.426 356.512 C 291.565 350.58 290.798 347.642 290.798 347.642 C 290.798 347.642 285.22 345.007 287.124 337.925 C 289.027 330.842 284.17 294.806 284.17 294.806 L 283.813 230.724 L 278.625 177.586 Z" style="fill: url(&quot;#color-1&quot;);"/>
    <path d="M 164.343 184.692 C 164.343 184.692 177.448 192.966 179.653 194.628 C 181.858 196.29 190.098 197.723 193.864 211.003 L 192.44 240.198 C 192.44 240.198 168.628 237.348 170.98 234.926 C 173.331 232.504 169.935 233.892 169.935 233.892 C 169.935 233.892 169.284 253.041 170.71 250.15 C 172.136 247.258 168.497 232.547 168.497 232.547 L 168.23 206.385 L 164.343 184.692 Z" style="fill: url(&quot;#color-1&quot;);"/>
  </g>
  <path fill="#2f2e41" style=""/>
</svg>