<svg xmlns="http://www.w3.org/2000/svg" width="33.55" height="40" viewBox="0 0 73.83 88.001">         <g id="Group_5" data-name="Group 5" transform="translate(-1861.539 -761.393)">             <path id="Path_57" data-name="Path 57" d="M1925.7,772.276l-10.291-10.883h-53.867v80.979H1872.4v7.022h62.968V772.276Zm-10.158-3.465,7.484,7.915v.917h-7.484Zm-49-2.418h44v13.75a2.5,2.5,0,0,0,2.5,2.5h9.984v54.729h-56.484Z" fill="currentColor"></path>             <path id="Path_58" data-name="Path 58" d="M1880.792,783.367l-3.9-3.9L1873.356,783l5.669,5.669a2.5,2.5,0,0,0,3.535,0l8.908-8.908-3.535-3.535Z" fill="currentColor"></path>             <path id="Path_59" data-name="Path 59" d="M1880.792,802.617l-3.9-3.9-3.535,3.535,5.669,5.669a2.5,2.5,0,0,0,3.535,0l8.908-8.908-3.535-3.535Z" fill="currentColor"></path>             <path id="Path_60" data-name="Path 60" d="M1880.792,822.242l-3.9-3.9-3.535,3.535,5.669,5.669a2.5,2.5,0,0,0,3.535,0l8.908-8.908-3.535-3.535Z" fill="currentColor"></path>             <rect id="Rectangle_2" data-name="Rectangle 2" width="20.5" height="5" transform="translate(1897.289 795.744)" fill="currentColor"></rect>             <rect id="Rectangle_3" data-name="Rectangle 3" width="10.375" height="5" transform="translate(1897.289 783.368)" fill="currentColor"></rect>             <rect id="Rectangle_4" data-name="Rectangle 4" width="20.75" height="5" transform="translate(1897.289 807.404)" fill="currentColor"></rect>             <rect id="Rectangle_5" data-name="Rectangle 5" width="20.5" height="5" transform="translate(1897.289 819.065)" fill="currentColor"></rect>         </g>     </svg>
