<?xml version="1.0" encoding="utf-8"?>
<svg xmlns="http://www.w3.org/2000/svg" viewBox="0 0 500 500">
  <path d="M 458.122 363.907 C 458.122 482.689 277.928 459.128 168.419 459.128 C 58.91 459.128 41.878 353.716 41.878 234.934 C 41.878 116.152 99.78 38.971 209.289 38.971 C 318.798 38.971 458.122 245.125 458.122 363.907 Z" style="fill-opacity: 0.5; fill: rgb(0, 66, 37);"/>
  <g transform="matrix(1, 0, 0, 1, -24.745987, 0.000111)">
    <rect x="-312.82" y="284.476" width="239.376" height="3.371" style="stroke: rgb(0, 0, 0);" transform="matrix(-1, 0, 0, 1, 0, 0)"/>
    <polygon points="188.898 145.673 191.264 115.41 225.549 129.731 206.208 160.51 188.898 145.673" fill="#a0616a" style="transform-box: fill-box; transform-origin: 50% 50%;" transform="matrix(-1, 0, 0, -1, -0.000002, 0.000017)"/>
    <circle cx="-226.58" cy="113.91" r="25.557" fill="#a0616a" style="" transform="matrix(-1, 0, 0, 1, 0, 0)"/>
    <polygon points="296.027 389.772 300.355 350.955 270.062 355.151 279.953 391.008 296.027 389.772" fill="#a0616a" style="transform-box: fill-box; transform-origin: 50% 50%;" transform="matrix(-1, 0, 0, -1, 0.000037, -0.000059)"/>
    <polygon points="177.946 395.335 182.273 356.519 151.98 360.715 161.872 396.572 177.946 395.335" fill="#a0616a" style="transform-box: fill-box; transform-origin: 50% 50%;" transform="matrix(-1, 0, 0, -1, 0.000021, 0.000022)"/>
    <path d="M 299.256 364.247 C 298.842 364.247 265.782 362.587 243.938 361.488 C 233.6 360.967 225.73 352.02 226.532 341.699 L 234.342 241.219 L 256.598 240.601 L 257.14 321.589 L 301.11 319.116 L 299.256 364.247 Z" fill="#2f2e41" style="transform-box: fill-box; transform-origin: 50% 50%;" transform="matrix(-1, 0, 0, -1, 0.000013, 0.000035)"/>
    <path d="M 267.178 282.102 C 267.178 282.102 272.741 239.444 268.414 235.116 C 264.086 230.789 128.385 238.517 128.385 238.517 C 128.385 238.517 158.155 281.506 163.517 282.731 C 168.879 283.957 254.195 288.284 254.195 288.284 L 267.178 282.102 Z" fill="#2f2e41" style="transform-box: fill-box; transform-origin: 50% 50%;" transform="matrix(-1, 0, 0, -1, -0.000004, 0.000032)"/>
    <path id="uuid-91047c5b-47d7-4179-8a16-40bd6d529b28-446" d="M 269.047 203.102 C 263.879 210.329 263.42 218.854 268.02 222.142 C 272.62 225.43 280.537 222.236 285.706 215.005 C 287.81 212.145 289.199 208.823 289.756 205.316 L 311.265 174.416 L 299.024 165.941 L 276.908 196.132 C 273.769 197.794 271.073 200.184 269.047 203.102 Z" fill="#a0616a" style="transform-box: fill-box; transform-origin: 50% 50%;" transform="matrix(-1, 0, 0, -1, 0.000018, 0.000021)"/>
    <path d="M 135.906 226.37 L 167.436 239.353 L 226.786 147.855 C 226.786 147.855 185.365 138.582 171.145 136.727 C 156.926 134.873 140.852 142.291 140.852 142.291 L 135.906 226.37 Z" style="fill: rgb(142, 32, 45); transform-box: fill-box; transform-origin: 50% 50%;" transform="matrix(-1, 0, 0, -1, 0.000004, -0.000019)"/>
    <path d="M 124.101 251.6 L 112.664 287.277 L 127.502 276.02 C 127.502 276.02 169.541 248.2 169.541 236.454 C 169.541 224.707 182.524 188.85 182.524 188.85 C 182.524 188.85 197.052 176.794 192.106 165.666 C 187.161 154.538 198.598 156.084 199.834 148.046 C 201.07 140.01 182.215 129.191 182.215 129.191 C 182.215 129.191 177.578 174.631 162.741 174.631 C 147.903 174.631 124.101 251.6 124.101 251.6 Z" style="fill: rgb(142, 32, 45); transform-box: fill-box; transform-origin: 50% 50%;" transform="matrix(-1, 0, 0, -1, 0.000019, 0.000003)"/>
    <path d="M 216.034 251.729 L 200.526 245.561 C 200.526 245.561 203 202.286 205.472 198.576 C 207.945 194.867 216.6 175.083 216.6 175.083 L 216.6 168.636 C 216.6 168.636 199.29 163.337 199.908 160.247 C 200.526 157.155 240.711 148.5 240.711 148.5 C 240.711 148.5 232.674 173.229 227.729 181.266 C 222.782 189.303 216.034 251.729 216.034 251.729 Z" style="fill: rgb(142, 32, 45); transform-box: fill-box; transform-origin: 50% 50%;" transform="matrix(-1, 0, 0, -1, -0.000023, -0.00002)"/>
    <path d="M 284.589 246.717 C 284.589 246.717 266.661 249.191 263.57 228.17 C 260.478 207.151 262.443 204.369 262.443 204.369 L 257.388 192.313 L 240.696 210.86 L 224.621 200.35 C 224.621 200.35 253.678 153.365 265.425 154.602 C 277.171 155.838 294.482 189.841 294.482 189.841 L 284.589 246.717 Z" style="fill: rgb(142, 32, 45); transform-box: fill-box; transform-origin: 50% 50%;" transform="matrix(-1, 0, 0, -1, 0.000019, -0.000055)"/>
    <path d="M 183.2 367.902 L 174.026 238.098 L 150.225 239.026 C 150.225 239.026 144.969 361.745 144.969 363.599 C 144.969 365.454 147.442 375.963 162.898 376.582 C 178.354 377.2 183.2 367.902 183.2 367.902 Z" fill="#2f2e41" style="transform-box: fill-box; transform-origin: 50% 50%;" transform="matrix(-1, 0, 0, -1, -0.000019, 0.000032)"/>
    <path d="M 164.683 418.117 C 164.683 418.117 177.047 421.826 178.901 419.353 C 180.756 416.88 191.266 415.644 191.266 415.644 L 194.358 385.351 C 194.358 385.351 185.702 379.168 184.465 377.932 C 183.229 376.695 150.463 375.459 149.845 382.877 C 149.226 390.296 158.5 399.57 158.5 399.57 L 164.683 418.117 Z" fill="#2f2e41" style="transform-box: fill-box; transform-origin: 50% 50%;" transform="matrix(-1, 0, 0, -1, -0.000008, -0.000005)"/>
    <path d="M 326.476 397.712 C 326.476 397.712 330.185 400.802 331.422 392.148 C 332.658 383.492 336.986 369.273 330.803 367.418 C 324.621 365.563 262.798 364.945 262.798 370.509 L 262.798 376.073 L 268.362 380.401 L 279.493 382.175 C 279.493 382.175 301.128 402.039 303.601 402.039 C 306.074 402.039 314.111 394.002 314.111 394.002 L 326.476 397.712 Z" fill="#2f2e41" style="transform-box: fill-box; transform-origin: 50% 50%;" transform="matrix(-1, 0, 0, -1, -0.000039, -0.00002)"/>
    <path d="M 252.051 79.796 C 252.051 79.796 239.686 94.634 234.741 93.397 C 229.795 92.16 232.886 90.305 232.886 90.305 L 220.521 103.907 C 220.521 103.907 210.63 107.616 201.356 95.869 C 201.356 95.869 195.792 105.761 201.356 111.325 C 206.921 116.889 208.775 116.271 210.011 119.362 C 211.248 122.453 219.903 124.927 219.903 124.927 C 219.903 124.927 219.407 129.376 222.128 127.15 C 224.849 124.927 231.646 124.927 231.646 124.927 C 231.646 124.927 231.684 127.399 234.449 124.927 C 237.214 122.453 240.305 123.69 240.305 123.69 C 240.305 123.69 240.305 119.411 242.469 119.386 C 244.632 119.362 248.342 122.453 248.96 119.98 C 249.578 117.508 253.906 116.271 254.524 108.852 C 255.142 101.434 252.051 79.796 252.051 79.796 Z" fill="#2f2e41" style="transform-box: fill-box; transform-origin: 50% 50%;" transform="matrix(-1, 0, 0, -1, -0.000036, 0.000005)"/>
    <path id="uuid-c026fd96-7d81-4b34-bb39-0646c0e08e96-447" d="M 205.128 249.313 C 197.247 245.21 188.741 245.95 186.131 250.965 C 183.519 255.981 187.792 263.372 195.677 267.475 C 198.803 269.158 202.287 270.068 205.838 270.127 L 239.449 287.092 L 246.123 273.784 L 213.13 256.118 C 211.044 253.243 208.3 250.91 205.128 249.313 Z" fill="#a0616a" style="transform-box: fill-box; transform-origin: 50% 50%;" transform="matrix(-1, 0, 0, -1, -0.000037, -0.000061)"/>
    <path d="M 165.271 276.638 C 165.271 276.638 199.892 278.493 207.311 259.946 C 214.73 241.399 220.912 180.813 220.912 180.813 L 145.488 139.778 L 132.506 159.793 L 183.2 199.36 L 165.271 276.638 Z" style="fill: rgb(142, 32, 45); transform-box: fill-box; transform-origin: 50% 50%;" transform="matrix(-1, 0, 0, -1, 0.000024, -0.000013)"/>
    <path d="M 408.321 197.761 L 366.532 197.761 C 359.083 197.761 353.01 203.83 353.01 211.29 L 353.01 275.568 C 353.01 283.025 359.083 289.097 366.532 289.097 L 408.321 289.097 C 415.77 289.097 421.843 283.025 421.843 275.568 L 421.843 211.29 C 421.843 203.83 415.77 197.761 408.321 197.761 Z" fill="#e6e6e6" style="transform-box: fill-box; transform-origin: 50% 50%;" transform="matrix(-1, 0, 0, -1, -0.000005, 0.000021)"/>
    <path d="M 408.32 95.66 L 366.532 95.66 C 359.083 95.66 353.01 101.729 353.01 109.19 L 353.01 173.468 C 353.01 180.926 359.083 186.996 366.532 186.996 L 408.32 186.996 C 415.77 186.996 421.843 180.926 421.843 173.468 L 421.843 109.19 C 421.843 101.729 415.77 95.66 408.32 95.66 Z" fill="#ccc" style="transform-box: fill-box; transform-origin: 50% 50%;" transform="matrix(-1, 0, 0, -1, -0.000005, 0.000031)"/>
    <path d="M 406.048 301.515 L 364.281 301.515 C 356.81 301.515 350.737 307.584 350.737 315.044 L 350.737 379.322 C 350.737 386.781 356.81 392.851 364.281 392.851 L 406.048 392.851 C 413.52 392.851 419.592 386.781 419.592 379.322 L 419.592 315.044 C 419.592 307.584 413.52 301.515 406.048 301.515 Z" fill="#e6e6e6" style="transform-box: fill-box; transform-origin: 50% 50%;" transform="matrix(-1, 0, 0, -1, -0.000016, -0.000046)"/>
    <path d="M 366.806 120.035 L 407.896 121.279 C 410.758 121.366 411.02 125.829 408.136 125.741 L 367.069 124.5 C 364.207 124.414 363.922 119.951 366.806 120.035 Z" fill="#fff" style="transform-box: fill-box; transform-origin: 50% 50%;" transform="matrix(-1, 0, 0, -1, 0.000022, -0.000033)"/>
    <path d="M 366.806 135.028 L 407.896 136.268 C 410.758 136.356 411.02 140.819 408.136 140.732 L 367.069 139.491 C 364.207 139.404 363.922 134.94 366.806 135.028 Z" fill="#fff" style="transform-box: fill-box; transform-origin: 50% 50%;" transform="matrix(-1, 0, 0, -1, 0.000022, 0.000031)"/>
    <path d="M 366.806 150.023 L 407.896 151.263 C 410.758 151.351 411.02 155.813 408.136 155.726 L 367.069 154.485 C 364.207 154.398 363.922 149.935 366.806 150.023 Z" fill="#fff" style="transform-box: fill-box; transform-origin: 50% 50%;" transform="matrix(-1, 0, 0, -1, 0.000022, -0.000027)"/>
    <path d="M 365.35 219.01 C 372.166 227.305 384.486 218.981 392.503 217.577 C 397.179 216.753 402.027 217.189 405.983 220.031 C 409.476 222.546 412.011 226.332 412.666 230.623 C 413.103 233.454 408.778 234.675 408.319 231.818 C 407.707 227.783 405.217 224.251 401.439 222.575 C 396.873 220.551 391.63 222.179 387.195 223.727 C 379.265 226.483 368.561 229.984 362.182 222.191 C 360.348 219.972 363.515 216.77 365.35 219.01 Z" fill="#fff" style="transform-box: fill-box; transform-origin: 50% 50%;" transform="matrix(-1, 0, 0, -1, -0.00004, 0.000045)"/>
    <path d="M 365.35 237.005 C 372.166 245.297 384.486 236.974 392.503 235.569 C 397.179 234.748 402.027 235.181 405.983 238.022 C 409.476 240.539 412.011 244.326 412.666 248.615 C 413.103 251.447 408.778 252.668 408.319 249.81 C 407.707 245.777 405.217 242.243 401.439 240.567 C 396.873 238.545 391.63 240.175 387.195 241.721 C 379.265 244.476 368.561 247.974 362.182 240.185 C 360.348 237.964 363.515 234.763 365.35 237.005 Z" fill="#fff" style="transform-box: fill-box; transform-origin: 50% 50%;" transform="matrix(-1, 0, 0, -1, -0.00004, 0.000043)"/>
    <path d="M 396.077 376.222 C 398.238 357.895 398.959 339.409 398.107 320.972 C 397.976 318.115 402.412 317.355 402.542 320.244 C 403.415 339.091 402.782 357.965 400.554 376.701 C 400.227 379.57 395.748 379.105 396.077 376.222 Z" fill="#fff" style="transform-box: fill-box; transform-origin: 50% 50%;" transform="matrix(-1, 0, 0, -1, 0.000025, -0.00007)"/>
    <path d="M 381.084 376.222 C 383.247 357.895 383.945 339.409 383.114 320.972 C 382.962 318.115 387.419 317.355 387.549 320.244 C 388.401 339.091 387.768 357.965 385.562 376.701 C 385.213 379.57 380.734 379.105 381.084 376.222 Z" fill="#fff" style="transform-box: fill-box; transform-origin: 50% 50%;" transform="matrix(-1, 0, 0, -1, -0.000039, -0.00007)"/>
    <path d="M 366.087 376.222 C 368.249 357.895 368.97 339.409 368.119 320.972 C 367.986 318.115 372.421 317.355 372.553 320.244 C 373.426 339.091 372.772 357.965 370.564 376.701 C 370.237 379.57 365.759 379.105 366.087 376.222 Z" fill="#fff" style="transform-box: fill-box; transform-origin: 50% 50%;" transform="matrix(-1, 0, 0, -1, -0.000075, -0.00007)"/>
  </g>
  <g transform="matrix(1, 0, 0, 1, -39.8312, -25.308897)"/>
  <polyline points="1092.9 552.406 1128.11 552.406 1141.9 562.406 1105.94 564.406 1092.9 552.406" fill="#e6e6e6"/>
  <path d="M 1164.06 631.433 L 1177.91 637.996 C 1172.23 630.065 1167.33 617.679 1164.71 607.823 C 1160.27 617.004 1153.12 628.238 1146.03 634.948 L 1160.68 631.181 C 1151.65 675.404 1117.71 707.152 1078.85 707.152 L 1078.3 708.749 C 1118.9 708.749 1154.84 677.442 1164.06 631.433 Z" fill="#3f3d56"/>
  <rect x="1107.9" y="562.406" width="34" height="34" fill="#e6e6e6"/>
  <path d="M 1221.9 562.406 L 1221.9 596.406 L 1187.9 596.406 C 1187.9 577.641 1203.13 562.406 1221.9 562.406 Z" fill="#e6e6e6"/>
  <circle cx="1164.9" cy="580.406" r="16" fill="#ccc"/>
  <polyline points="1107.9 562.406 1092.9 552.406 1092.9 579.406 1107.9 596.406" fill="#f2f2f2"/>
  <path d="M 490.178 257.634 C 490.178 317.12 467.911 371.069 431.97 410.053 C 396.025 449.041 346.258 473.208 291.394 473.208 C 236.53 473.208 186.763 449.041 150.818 410.053 C 114.877 371.069 92.61 317.12 92.61 257.634 C 92.61 198.148 114.877 144.199 150.818 105.215 C 186.763 66.227 236.53 42.06 291.394 42.06 C 346.258 42.06 396.025 66.227 431.97 105.215 C 467.911 144.199 490.178 198.148 490.178 257.634 Z M 431.234 105.893 C 395.414 67.039 346.039 43.06 291.394 43.06 C 236.749 43.06 187.374 67.039 151.554 105.893 C 115.73 144.75 93.61 198.338 93.61 257.634 C 93.61 316.93 115.73 370.518 151.554 409.375 C 187.374 448.229 236.749 472.208 291.394 472.208 C 346.039 472.208 395.414 448.229 431.234 409.375 C 467.058 370.518 489.178 316.93 489.178 257.634 C 489.178 198.338 467.058 144.75 431.234 105.893 Z" style="fill: none;"/>
</svg>