<?xml version="1.0" encoding="utf-8"?>
<svg xmlns="http://www.w3.org/2000/svg" viewBox="0 0 500 500">
  <g style="" transform="matrix(1.051827, 0, 0, 1.051827, -2.686166, -3.882614)">
    <path d="M 467.508 301.999 C 467.508 411.098 448.721 462.757 329.918 462.757 C 211.114 462.757 12.963 378.401 12.963 269.302 C 12.963 160.201 174.634 19.989 293.437 19.989 C 412.241 19.989 467.508 192.898 467.508 301.999 Z" style="fill: rgb(142, 32, 45); fill-opacity: 0.51;"/>
    <path d="M 417.222 62.115 L 207.909 62.115 C 197.459 62.115 188.989 70.585 188.989 81.033 L 188.989 397.072 C 188.989 407.52 197.459 415.991 207.909 415.991 L 417.222 415.991 C 422.342 416.401 412.118 63.311 417.222 62.115 Z M 214.266 372.204 C 214.266 373.895 212.895 375.267 211.203 375.267 L 203.286 375.267 C 201.595 375.267 200.223 373.895 200.223 372.204 L 200.223 364.287 C 200.223 362.596 201.595 361.225 203.286 361.225 L 211.203 361.225 C 212.895 361.225 214.266 362.596 214.266 364.287 L 214.266 372.204 Z M 214.266 340.959 C 214.266 342.651 212.895 344.022 211.203 344.022 L 203.286 344.022 C 201.595 344.022 200.223 342.651 200.223 340.959 L 200.223 333.042 C 200.223 331.351 201.595 329.979 203.286 329.979 L 211.203 329.979 C 212.895 329.979 214.266 331.351 214.266 333.042 L 214.266 340.959 Z M 214.266 309.714 C 214.266 311.406 212.895 312.777 211.203 312.777 L 203.286 312.777 C 201.595 312.777 200.223 311.406 200.223 309.714 L 200.223 301.797 C 200.223 300.106 201.595 298.734 203.286 298.734 L 211.203 298.734 C 212.895 298.734 214.266 300.106 214.266 301.797 L 214.266 309.714 Z M 214.266 278.469 C 214.266 280.161 212.895 281.532 211.203 281.532 L 203.286 281.532 C 201.595 281.532 200.223 280.161 200.223 278.469 L 200.223 270.552 C 200.223 268.86 201.595 267.489 203.286 267.489 L 211.203 267.489 C 212.895 267.489 214.266 268.86 214.266 270.552 L 214.266 278.469 Z M 214.266 247.224 C 214.266 248.916 212.895 250.287 211.203 250.287 L 203.286 250.287 C 201.595 250.287 200.223 248.916 200.223 247.224 L 200.223 239.307 C 200.223 237.615 201.595 236.244 203.286 236.244 L 211.203 236.244 C 212.895 236.244 214.266 237.615 214.266 239.307 L 214.266 247.224 Z M 214.266 215.979 C 214.266 217.671 212.895 219.042 211.203 219.042 L 203.286 219.042 C 201.595 219.042 200.223 217.671 200.223 215.979 L 200.223 208.062 C 200.223 206.37 201.595 204.999 203.286 204.999 L 211.203 204.999 C 212.895 204.999 214.266 206.37 214.266 208.062 L 214.266 215.979 Z M 214.266 184.734 C 214.266 186.425 212.895 187.797 211.203 187.797 L 203.286 187.797 C 201.595 187.797 200.223 186.425 200.223 184.734 L 200.223 176.817 C 200.223 175.125 201.595 173.754 203.286 173.754 L 211.203 173.754 C 212.895 173.754 214.266 175.125 214.266 176.817 L 214.266 184.734 Z M 214.266 153.489 C 214.266 155.18 212.895 156.552 211.203 156.552 L 203.286 156.552 C 201.595 156.552 200.223 155.18 200.223 153.489 L 200.223 145.572 C 200.223 143.881 201.595 142.51 203.286 142.51 L 211.203 142.51 C 212.895 142.51 214.266 143.881 214.266 145.572 L 214.266 153.489 Z M 214.266 122.244 C 214.266 123.936 212.895 125.307 211.203 125.307 L 203.286 125.307 C 201.595 125.307 200.223 123.936 200.223 122.244 L 200.223 114.327 C 200.223 112.636 201.595 111.264 203.286 111.264 L 211.203 111.264 C 212.895 111.264 214.266 112.636 214.266 114.327 L 214.266 122.244 Z" fill="#f2f2f2" style=""/>
    <path d="M 417.222 416.491 L 207.909 416.491 C 202.582 416.469 197.663 414.29 194.177 410.803 C 190.69 407.316 188.511 402.398 188.489 397.072 L 188.489 81.033 C 188.511 75.707 190.69 70.789 194.177 67.302 C 197.663 63.816 202.582 61.637 207.909 61.615 L 417.222 61.615 C 417.504 61.645 417.857 61.802 418.07 62.031 C 418.262 62.237 418.46 62.56 418.626 62.922 C 418.946 63.623 419.257 64.668 419.547 65.982 C 420.123 68.593 420.657 72.423 421.148 77.27 C 422.129 86.957 422.946 100.796 423.599 117.388 C 424.906 150.57 425.559 194.815 425.559 239.053 C 425.559 283.291 424.906 327.536 423.599 360.718 C 422.946 377.31 422.129 391.149 421.148 400.836 C 420.657 405.683 420.123 409.513 419.547 412.124 C 419.257 413.438 418.946 414.483 418.626 415.184 C 418.46 415.546 418.262 415.869 418.07 416.075 C 417.857 416.304 417.504 416.461 417.222 416.491 Z M 417.338 415.394 C 417.462 415.26 417.576 415.075 417.716 414.768 C 418.008 414.13 418.289 413.187 418.57 411.909 C 419.138 409.336 419.664 405.564 420.153 400.735 C 421.132 391.069 421.947 377.261 422.6 360.678 C 423.906 327.508 424.559 283.284 424.559 239.053 C 424.559 194.822 423.906 150.598 422.6 117.428 C 421.947 100.845 421.132 87.037 420.153 77.371 C 419.664 72.542 419.138 68.77 418.57 66.197 C 418.289 64.919 418.008 63.976 417.716 63.338 C 417.576 63.031 417.462 62.846 417.338 62.712 C 417.235 62.601 417.267 62.585 417.222 62.615 L 207.909 62.615 C 202.786 62.593 198.245 64.649 194.884 68.01 C 191.523 71.37 189.467 75.911 189.489 81.033 L 189.489 397.072 C 189.467 402.194 191.523 406.735 194.884 410.096 C 198.245 413.457 202.786 415.513 207.909 415.491 L 417.222 415.491 C 417.267 415.521 417.235 415.505 417.338 415.394 Z M 214.766 372.204 C 214.744 373.152 214.34 374.106 213.723 374.723 C 213.105 375.341 212.151 375.745 211.203 375.767 L 203.286 375.767 C 202.338 375.745 201.384 375.341 200.767 374.723 C 200.149 374.106 199.745 373.152 199.723 372.204 L 199.723 364.287 C 199.745 363.339 200.15 362.385 200.767 361.768 C 201.384 361.151 202.338 360.747 203.286 360.725 L 211.203 360.725 C 212.151 360.747 213.105 361.151 213.723 361.768 C 214.34 362.385 214.744 363.339 214.766 364.287 L 214.766 372.204 Z M 213.766 364.287 C 213.788 363.544 213.507 362.967 213.015 362.475 C 212.524 361.984 211.947 361.703 211.203 361.725 L 203.286 361.725 C 202.543 361.703 201.965 361.984 201.474 362.476 C 200.982 362.967 200.701 363.544 200.723 364.287 L 200.723 372.204 C 200.701 372.947 200.983 373.525 201.474 374.016 C 201.965 374.507 202.543 374.789 203.286 374.767 L 211.203 374.767 C 211.947 374.789 212.524 374.507 213.015 374.016 C 213.507 373.525 213.788 372.947 213.766 372.204 L 213.766 364.287 Z M 214.766 340.959 C 214.744 341.907 214.34 342.861 213.723 343.479 C 213.105 344.096 212.151 344.5 211.203 344.522 L 203.286 344.522 C 202.338 344.5 201.384 344.096 200.767 343.479 C 200.149 342.861 199.745 341.907 199.723 340.959 L 199.723 333.042 C 199.745 332.094 200.149 331.14 200.767 330.523 C 201.384 329.905 202.338 329.501 203.286 329.479 L 211.203 329.479 C 212.151 329.501 213.105 329.905 213.723 330.523 C 214.34 331.14 214.744 332.094 214.766 333.042 L 214.766 340.959 Z M 213.766 333.042 C 213.788 332.299 213.507 331.721 213.015 331.23 C 212.524 330.739 211.947 330.457 211.203 330.479 L 203.286 330.479 C 202.543 330.457 201.965 330.739 201.474 331.23 C 200.983 331.721 200.701 332.299 200.723 333.042 L 200.723 340.959 C 200.701 341.703 200.983 342.28 201.474 342.771 C 201.965 343.263 202.543 343.544 203.286 343.522 L 211.203 343.522 C 211.947 343.544 212.524 343.263 213.015 342.771 C 213.507 342.28 213.788 341.703 213.766 340.959 L 213.766 333.042 Z M 214.766 309.714 C 214.744 310.662 214.34 311.616 213.723 312.234 C 213.105 312.851 212.151 313.255 211.203 313.277 L 203.286 313.277 C 202.338 313.255 201.384 312.851 200.767 312.234 C 200.149 311.616 199.745 310.662 199.723 309.714 L 199.723 301.797 C 199.745 300.849 200.149 299.895 200.767 299.278 C 201.384 298.66 202.338 298.256 203.286 298.234 L 211.203 298.234 C 212.151 298.256 213.105 298.66 213.723 299.278 C 214.34 299.895 214.744 300.849 214.766 301.797 L 214.766 309.714 Z M 213.766 301.797 C 213.788 301.054 213.507 300.476 213.015 299.985 C 212.524 299.494 211.947 299.212 211.203 299.234 L 203.286 299.234 C 202.543 299.212 201.965 299.494 201.474 299.985 C 200.983 300.476 200.701 301.054 200.723 301.797 L 200.723 309.714 C 200.701 310.458 200.983 311.035 201.474 311.526 C 201.965 312.018 202.543 312.299 203.286 312.277 L 211.203 312.277 C 211.947 312.299 212.524 312.018 213.015 311.526 C 213.507 311.035 213.788 310.458 213.766 309.714 L 213.766 301.797 Z M 214.766 278.469 C 214.744 279.417 214.34 280.371 213.723 280.989 C 213.105 281.606 212.151 282.01 211.203 282.032 L 203.286 282.032 C 202.338 282.01 201.384 281.606 200.767 280.989 C 200.149 280.371 199.745 279.417 199.723 278.469 L 199.723 270.552 C 199.745 269.604 200.149 268.65 200.767 268.032 C 201.384 267.415 202.338 267.011 203.286 266.989 L 211.203 266.989 C 212.151 267.011 213.105 267.415 213.723 268.032 C 214.34 268.65 214.744 269.604 214.766 270.552 L 214.766 278.469 Z M 213.766 270.552 C 213.788 269.808 213.507 269.231 213.015 268.74 C 212.524 268.248 211.947 267.967 211.203 267.989 L 203.286 267.989 C 202.543 267.967 201.965 268.248 201.474 268.74 C 200.983 269.231 200.701 269.808 200.723 270.552 L 200.723 278.469 C 200.701 279.213 200.983 279.79 201.474 280.281 C 201.965 280.773 202.543 281.054 203.286 281.032 L 211.203 281.032 C 211.947 281.054 212.524 280.773 213.015 280.281 C 213.507 279.79 213.788 279.213 213.766 278.469 L 213.766 270.552 Z M 214.766 247.224 C 214.744 248.172 214.34 249.126 213.723 249.744 C 213.105 250.361 212.151 250.765 211.203 250.787 L 203.286 250.787 C 202.338 250.765 201.384 250.361 200.767 249.744 C 200.149 249.126 199.745 248.172 199.723 247.224 L 199.723 239.307 C 199.745 238.359 200.149 237.405 200.767 236.787 C 201.384 236.17 202.338 235.766 203.286 235.744 L 211.203 235.744 C 212.151 235.766 213.105 236.17 213.723 236.787 C 214.34 237.405 214.744 238.359 214.766 239.307 L 214.766 247.224 Z M 213.766 239.307 C 213.788 238.563 213.507 237.986 213.015 237.495 C 212.524 237.003 211.947 236.722 211.203 236.744 L 203.286 236.744 C 202.543 236.722 201.965 237.003 201.474 237.495 C 200.983 237.986 200.701 238.563 200.723 239.307 L 200.723 247.224 C 200.701 247.968 200.983 248.545 201.474 249.036 C 201.965 249.528 202.543 249.809 203.286 249.787 L 211.203 249.787 C 211.947 249.809 212.524 249.528 213.015 249.036 C 213.507 248.545 213.788 247.968 213.766 247.224 L 213.766 239.307 Z M 214.766 215.979 C 214.744 216.927 214.34 217.881 213.723 218.499 C 213.105 219.116 212.151 219.52 211.203 219.542 L 203.286 219.542 C 202.338 219.52 201.384 219.116 200.767 218.499 C 200.149 217.881 199.745 216.927 199.723 215.979 L 199.723 208.062 C 199.745 207.114 200.149 206.16 200.767 205.542 C 201.384 204.925 202.338 204.521 203.286 204.499 L 211.203 204.499 C 212.151 204.521 213.105 204.925 213.723 205.542 C 214.34 206.16 214.744 207.114 214.766 208.062 L 214.766 215.979 Z M 213.766 208.062 C 213.788 207.318 213.507 206.741 213.015 206.25 C 212.524 205.758 211.947 205.477 211.203 205.499 L 203.286 205.499 C 202.543 205.477 201.965 205.758 201.474 206.25 C 200.983 206.741 200.701 207.318 200.723 208.062 L 200.723 215.979 C 200.701 216.723 200.983 217.3 201.474 217.791 C 201.965 218.283 202.543 218.564 203.286 218.542 L 211.203 218.542 C 211.947 218.564 212.524 218.283 213.015 217.791 C 213.507 217.3 213.788 216.723 213.766 215.979 L 213.766 208.062 Z M 214.766 184.734 C 214.744 185.682 214.34 186.636 213.723 187.253 C 213.105 187.871 212.151 188.275 211.203 188.297 L 203.286 188.297 C 202.338 188.275 201.384 187.871 200.767 187.253 C 200.149 186.636 199.745 185.682 199.723 184.734 L 199.723 176.817 C 199.745 175.869 200.149 174.915 200.767 174.297 C 201.384 173.68 202.338 173.276 203.286 173.254 L 211.203 173.254 C 212.151 173.276 213.105 173.68 213.723 174.297 C 214.34 174.915 214.744 175.869 214.766 176.817 L 214.766 184.734 Z M 213.766 176.817 C 213.788 176.073 213.507 175.496 213.015 175.005 C 212.524 174.513 211.947 174.232 211.203 174.254 L 203.286 174.254 C 202.543 174.232 201.965 174.513 201.474 175.005 C 200.983 175.496 200.701 176.073 200.723 176.817 L 200.723 184.734 C 200.701 185.477 200.983 186.055 201.474 186.546 C 201.965 187.037 202.543 187.319 203.286 187.297 L 211.203 187.297 C 211.947 187.319 212.524 187.037 213.015 186.546 C 213.507 186.055 213.788 185.477 213.766 184.734 L 213.766 176.817 Z M 214.766 153.489 C 214.744 154.437 214.34 155.391 213.723 156.008 C 213.105 156.626 212.151 157.03 211.203 157.052 L 203.286 157.052 C 202.338 157.03 201.384 156.626 200.767 156.008 C 200.149 155.391 199.745 154.437 199.723 153.489 L 199.723 145.572 C 199.745 144.624 200.15 143.67 200.767 143.053 C 201.384 142.436 202.338 142.032 203.286 142.01 L 211.203 142.01 C 212.151 142.032 213.105 142.436 213.723 143.053 C 214.34 143.67 214.744 144.624 214.766 145.572 L 214.766 153.489 Z M 213.766 145.572 C 213.788 144.829 213.507 144.252 213.015 143.76 C 212.524 143.269 211.947 142.988 211.203 143.01 L 203.286 143.01 C 202.543 142.988 201.965 143.269 201.474 143.761 C 200.982 144.252 200.701 144.829 200.723 145.572 L 200.723 153.489 C 200.701 154.232 200.983 154.81 201.474 155.301 C 201.965 155.792 202.543 156.074 203.286 156.052 L 211.203 156.052 C 211.947 156.074 212.524 155.792 213.015 155.301 C 213.507 154.81 213.788 154.232 213.766 153.489 L 213.766 145.572 Z M 214.766 122.244 C 214.744 123.192 214.34 124.146 213.723 124.764 C 213.105 125.381 212.151 125.785 211.203 125.807 L 203.286 125.807 C 202.338 125.785 201.384 125.381 200.767 124.764 C 200.149 124.146 199.745 123.192 199.723 122.244 L 199.723 114.327 C 199.745 113.379 200.149 112.425 200.767 111.808 C 201.384 111.19 202.338 110.786 203.286 110.764 L 211.203 110.764 C 212.151 110.786 213.105 111.19 213.723 111.808 C 214.34 112.425 214.744 113.379 214.766 114.327 L 214.766 122.244 Z M 213.766 114.327 C 213.788 113.584 213.507 113.006 213.015 112.515 C 212.524 112.024 211.947 111.742 211.203 111.764 L 203.286 111.764 C 202.543 111.742 201.965 112.024 201.474 112.515 C 200.983 113.006 200.701 113.584 200.723 114.327 L 200.723 122.244 C 200.701 122.988 200.983 123.565 201.474 124.056 C 201.965 124.548 202.543 124.829 203.286 124.807 L 211.203 124.807 C 211.947 124.829 212.524 124.548 213.015 124.056 C 213.507 123.565 213.788 122.988 213.766 122.244 L 213.766 114.327 Z" style="fill: none;"/>
    <path d="M 417.222 416.491 L 207.909 416.491 C 202.582 416.469 197.663 414.29 194.177 410.803 C 190.69 407.316 188.511 402.398 188.489 397.072 L 188.489 81.033 C 188.511 75.707 190.69 70.789 194.177 67.302 C 197.663 63.816 202.582 61.637 207.909 61.615 L 417.222 61.615 C 417.504 61.645 417.857 61.802 418.07 62.031 C 418.262 62.237 418.46 62.56 418.626 62.922 C 418.946 63.623 419.257 64.668 419.547 65.982 C 420.123 68.593 420.657 72.423 421.148 77.27 C 422.129 86.957 422.946 100.796 423.599 117.388 C 424.906 150.57 425.559 194.815 425.559 239.053 C 425.559 283.291 424.906 327.536 423.599 360.718 C 422.946 377.31 422.129 391.149 421.148 400.836 C 420.657 405.683 420.123 409.513 419.547 412.124 C 419.257 413.438 418.946 414.483 418.626 415.184 C 418.46 415.546 418.262 415.869 418.07 416.075 C 417.857 416.304 417.504 416.461 417.222 416.491 Z M 417.338 415.394 C 417.462 415.26 417.576 415.075 417.716 414.768 C 418.008 414.13 418.289 413.187 418.57 411.909 C 419.138 409.336 419.664 405.564 420.153 400.735 C 421.132 391.069 421.947 377.261 422.6 360.678 C 423.906 327.508 424.559 283.284 424.559 239.053 C 424.559 194.822 423.906 150.598 422.6 117.428 C 421.947 100.845 421.132 87.037 420.153 77.371 C 419.664 72.542 419.138 68.77 418.57 66.197 C 418.289 64.919 418.008 63.976 417.716 63.338 C 417.576 63.031 417.462 62.846 417.338 62.712 C 417.235 62.601 417.267 62.585 417.222 62.615 L 207.909 62.615 C 202.786 62.593 198.245 64.649 194.884 68.01 C 191.523 71.37 189.467 75.911 189.489 81.033 L 189.489 397.072 C 189.467 402.194 191.523 406.735 194.884 410.096 C 198.245 413.457 202.786 415.513 207.909 415.491 L 417.222 415.491 C 417.267 415.521 417.235 415.505 417.338 415.394 Z M 214.766 372.204 C 214.744 373.152 214.34 374.106 213.723 374.723 C 213.105 375.341 212.151 375.745 211.203 375.767 L 203.286 375.767 C 202.338 375.745 201.384 375.341 200.767 374.723 C 200.149 374.106 199.745 373.152 199.723 372.204 L 199.723 364.287 C 199.745 363.339 200.15 362.385 200.767 361.768 C 201.384 361.151 202.338 360.747 203.286 360.725 L 211.203 360.725 C 212.151 360.747 213.105 361.151 213.723 361.768 C 214.34 362.385 214.744 363.339 214.766 364.287 L 214.766 372.204 Z M 213.766 364.287 C 213.788 363.544 213.507 362.967 213.015 362.475 C 212.524 361.984 211.947 361.703 211.203 361.725 L 203.286 361.725 C 202.543 361.703 201.965 361.984 201.474 362.476 C 200.982 362.967 200.701 363.544 200.723 364.287 L 200.723 372.204 C 200.701 372.947 200.983 373.525 201.474 374.016 C 201.965 374.507 202.543 374.789 203.286 374.767 L 211.203 374.767 C 211.947 374.789 212.524 374.507 213.015 374.016 C 213.507 373.525 213.788 372.947 213.766 372.204 L 213.766 364.287 Z M 214.766 340.959 C 214.744 341.907 214.34 342.861 213.723 343.479 C 213.105 344.096 212.151 344.5 211.203 344.522 L 203.286 344.522 C 202.338 344.5 201.384 344.096 200.767 343.479 C 200.149 342.861 199.745 341.907 199.723 340.959 L 199.723 333.042 C 199.745 332.094 200.149 331.14 200.767 330.523 C 201.384 329.905 202.338 329.501 203.286 329.479 L 211.203 329.479 C 212.151 329.501 213.105 329.905 213.723 330.523 C 214.34 331.14 214.744 332.094 214.766 333.042 L 214.766 340.959 Z M 213.766 333.042 C 213.788 332.299 213.507 331.721 213.015 331.23 C 212.524 330.739 211.947 330.457 211.203 330.479 L 203.286 330.479 C 202.543 330.457 201.965 330.739 201.474 331.23 C 200.983 331.721 200.701 332.299 200.723 333.042 L 200.723 340.959 C 200.701 341.703 200.983 342.28 201.474 342.771 C 201.965 343.263 202.543 343.544 203.286 343.522 L 211.203 343.522 C 211.947 343.544 212.524 343.263 213.015 342.771 C 213.507 342.28 213.788 341.703 213.766 340.959 L 213.766 333.042 Z M 214.766 309.714 C 214.744 310.662 214.34 311.616 213.723 312.234 C 213.105 312.851 212.151 313.255 211.203 313.277 L 203.286 313.277 C 202.338 313.255 201.384 312.851 200.767 312.234 C 200.149 311.616 199.745 310.662 199.723 309.714 L 199.723 301.797 C 199.745 300.849 200.149 299.895 200.767 299.278 C 201.384 298.66 202.338 298.256 203.286 298.234 L 211.203 298.234 C 212.151 298.256 213.105 298.66 213.723 299.278 C 214.34 299.895 214.744 300.849 214.766 301.797 L 214.766 309.714 Z M 213.766 301.797 C 213.788 301.054 213.507 300.476 213.015 299.985 C 212.524 299.494 211.947 299.212 211.203 299.234 L 203.286 299.234 C 202.543 299.212 201.965 299.494 201.474 299.985 C 200.983 300.476 200.701 301.054 200.723 301.797 L 200.723 309.714 C 200.701 310.458 200.983 311.035 201.474 311.526 C 201.965 312.018 202.543 312.299 203.286 312.277 L 211.203 312.277 C 211.947 312.299 212.524 312.018 213.015 311.526 C 213.507 311.035 213.788 310.458 213.766 309.714 L 213.766 301.797 Z M 214.766 278.469 C 214.744 279.417 214.34 280.371 213.723 280.989 C 213.105 281.606 212.151 282.01 211.203 282.032 L 203.286 282.032 C 202.338 282.01 201.384 281.606 200.767 280.989 C 200.149 280.371 199.745 279.417 199.723 278.469 L 199.723 270.552 C 199.745 269.604 200.149 268.65 200.767 268.032 C 201.384 267.415 202.338 267.011 203.286 266.989 L 211.203 266.989 C 212.151 267.011 213.105 267.415 213.723 268.032 C 214.34 268.65 214.744 269.604 214.766 270.552 L 214.766 278.469 Z M 213.766 270.552 C 213.788 269.808 213.507 269.231 213.015 268.74 C 212.524 268.248 211.947 267.967 211.203 267.989 L 203.286 267.989 C 202.543 267.967 201.965 268.248 201.474 268.74 C 200.983 269.231 200.701 269.808 200.723 270.552 L 200.723 278.469 C 200.701 279.213 200.983 279.79 201.474 280.281 C 201.965 280.773 202.543 281.054 203.286 281.032 L 211.203 281.032 C 211.947 281.054 212.524 280.773 213.015 280.281 C 213.507 279.79 213.788 279.213 213.766 278.469 L 213.766 270.552 Z M 214.766 247.224 C 214.744 248.172 214.34 249.126 213.723 249.744 C 213.105 250.361 212.151 250.765 211.203 250.787 L 203.286 250.787 C 202.338 250.765 201.384 250.361 200.767 249.744 C 200.149 249.126 199.745 248.172 199.723 247.224 L 199.723 239.307 C 199.745 238.359 200.149 237.405 200.767 236.787 C 201.384 236.17 202.338 235.766 203.286 235.744 L 211.203 235.744 C 212.151 235.766 213.105 236.17 213.723 236.787 C 214.34 237.405 214.744 238.359 214.766 239.307 L 214.766 247.224 Z M 213.766 239.307 C 213.788 238.563 213.507 237.986 213.015 237.495 C 212.524 237.003 211.947 236.722 211.203 236.744 L 203.286 236.744 C 202.543 236.722 201.965 237.003 201.474 237.495 C 200.983 237.986 200.701 238.563 200.723 239.307 L 200.723 247.224 C 200.701 247.968 200.983 248.545 201.474 249.036 C 201.965 249.528 202.543 249.809 203.286 249.787 L 211.203 249.787 C 211.947 249.809 212.524 249.528 213.015 249.036 C 213.507 248.545 213.788 247.968 213.766 247.224 L 213.766 239.307 Z M 214.766 215.979 C 214.744 216.927 214.34 217.881 213.723 218.499 C 213.105 219.116 212.151 219.52 211.203 219.542 L 203.286 219.542 C 202.338 219.52 201.384 219.116 200.767 218.499 C 200.149 217.881 199.745 216.927 199.723 215.979 L 199.723 208.062 C 199.745 207.114 200.149 206.16 200.767 205.542 C 201.384 204.925 202.338 204.521 203.286 204.499 L 211.203 204.499 C 212.151 204.521 213.105 204.925 213.723 205.542 C 214.34 206.16 214.744 207.114 214.766 208.062 L 214.766 215.979 Z M 213.766 208.062 C 213.788 207.318 213.507 206.741 213.015 206.25 C 212.524 205.758 211.947 205.477 211.203 205.499 L 203.286 205.499 C 202.543 205.477 201.965 205.758 201.474 206.25 C 200.983 206.741 200.701 207.318 200.723 208.062 L 200.723 215.979 C 200.701 216.723 200.983 217.3 201.474 217.791 C 201.965 218.283 202.543 218.564 203.286 218.542 L 211.203 218.542 C 211.947 218.564 212.524 218.283 213.015 217.791 C 213.507 217.3 213.788 216.723 213.766 215.979 L 213.766 208.062 Z M 214.766 184.734 C 214.744 185.682 214.34 186.636 213.723 187.253 C 213.105 187.871 212.151 188.275 211.203 188.297 L 203.286 188.297 C 202.338 188.275 201.384 187.871 200.767 187.253 C 200.149 186.636 199.745 185.682 199.723 184.734 L 199.723 176.817 C 199.745 175.869 200.149 174.915 200.767 174.297 C 201.384 173.68 202.338 173.276 203.286 173.254 L 211.203 173.254 C 212.151 173.276 213.105 173.68 213.723 174.297 C 214.34 174.915 214.744 175.869 214.766 176.817 L 214.766 184.734 Z M 213.766 176.817 C 213.788 176.073 213.507 175.496 213.015 175.005 C 212.524 174.513 211.947 174.232 211.203 174.254 L 203.286 174.254 C 202.543 174.232 201.965 174.513 201.474 175.005 C 200.983 175.496 200.701 176.073 200.723 176.817 L 200.723 184.734 C 200.701 185.477 200.983 186.055 201.474 186.546 C 201.965 187.037 202.543 187.319 203.286 187.297 L 211.203 187.297 C 211.947 187.319 212.524 187.037 213.015 186.546 C 213.507 186.055 213.788 185.477 213.766 184.734 L 213.766 176.817 Z M 214.766 153.489 C 214.744 154.437 214.34 155.391 213.723 156.008 C 213.105 156.626 212.151 157.03 211.203 157.052 L 203.286 157.052 C 202.338 157.03 201.384 156.626 200.767 156.008 C 200.149 155.391 199.745 154.437 199.723 153.489 L 199.723 145.572 C 199.745 144.624 200.15 143.67 200.767 143.053 C 201.384 142.436 202.338 142.032 203.286 142.01 L 211.203 142.01 C 212.151 142.032 213.105 142.436 213.723 143.053 C 214.34 143.67 214.744 144.624 214.766 145.572 L 214.766 153.489 Z M 213.766 145.572 C 213.788 144.829 213.507 144.252 213.015 143.76 C 212.524 143.269 211.947 142.988 211.203 143.01 L 203.286 143.01 C 202.543 142.988 201.965 143.269 201.474 143.761 C 200.982 144.252 200.701 144.829 200.723 145.572 L 200.723 153.489 C 200.701 154.232 200.983 154.81 201.474 155.301 C 201.965 155.792 202.543 156.074 203.286 156.052 L 211.203 156.052 C 211.947 156.074 212.524 155.792 213.015 155.301 C 213.507 154.81 213.788 154.232 213.766 153.489 L 213.766 145.572 Z M 214.766 122.244 C 214.744 123.192 214.34 124.146 213.723 124.764 C 213.105 125.381 212.151 125.785 211.203 125.807 L 203.286 125.807 C 202.338 125.785 201.384 125.381 200.767 124.764 C 200.149 124.146 199.745 123.192 199.723 122.244 L 199.723 114.327 C 199.745 113.379 200.149 112.425 200.767 111.808 C 201.384 111.19 202.338 110.786 203.286 110.764 L 211.203 110.764 C 212.151 110.786 213.105 111.19 213.723 111.808 C 214.34 112.425 214.744 113.379 214.766 114.327 L 214.766 122.244 Z M 213.766 114.327 C 213.788 113.584 213.507 113.006 213.015 112.515 C 212.524 112.024 211.947 111.742 211.203 111.764 L 203.286 111.764 C 202.543 111.742 201.965 112.024 201.474 112.515 C 200.983 113.006 200.701 113.584 200.723 114.327 L 200.723 122.244 C 200.701 122.988 200.983 123.565 201.474 124.056 C 201.965 124.548 202.543 124.829 203.286 124.807 L 211.203 124.807 C 211.947 124.829 212.524 124.548 213.015 124.056 C 213.507 123.565 213.788 122.988 213.766 122.244 L 213.766 114.327 Z" style="fill: none;"/>
    <path d="M 395.417 119.105 L 242.551 119.105 C 241.92 119.105 241.526 118.422 241.841 117.876 C 241.987 117.623 242.258 117.466 242.551 117.466 L 395.417 117.466 C 396.048 117.466 396.442 118.149 396.126 118.695 C 395.98 118.948 395.709 119.105 395.417 119.105 Z" fill="#e6e6e6" style=""/>
    <path d="M 395.417 149.998 L 242.551 149.998 C 241.92 149.998 241.526 149.316 241.841 148.77 C 241.987 148.516 242.258 148.36 242.551 148.36 L 395.417 148.36 C 396.048 148.36 396.442 149.043 396.126 149.589 C 395.98 149.843 395.709 149.998 395.417 149.998 Z" fill="#e6e6e6" style=""/>
    <path d="M 395.417 180.893 L 242.551 180.893 C 241.92 180.893 241.526 180.21 241.841 179.664 C 241.987 179.41 242.258 179.254 242.551 179.254 L 395.417 179.254 C 396.048 179.254 396.442 179.937 396.126 180.483 C 395.98 180.736 395.709 180.893 395.417 180.893 Z" fill="#e6e6e6" style=""/>
    <path d="M 395.417 211.787 L 242.551 211.787 C 241.92 211.787 241.526 211.104 241.841 210.558 C 241.987 210.305 242.258 210.148 242.551 210.148 L 395.417 210.148 C 396.048 210.148 396.442 210.831 396.126 211.377 C 395.98 211.631 395.709 211.787 395.417 211.787 Z" fill="#e6e6e6" style=""/>
    <path d="M 395.417 242.68 L 242.551 242.68 C 241.92 242.68 241.526 241.998 241.841 241.451 C 241.987 241.198 242.258 241.042 242.551 241.042 L 395.417 241.042 C 396.048 241.042 396.442 241.725 396.126 242.271 C 395.98 242.525 395.709 242.68 395.417 242.68 Z" fill="#e6e6e6" style=""/>
    <path d="M 395.417 273.574 L 242.551 273.574 C 241.92 273.574 241.526 272.892 241.841 272.345 C 241.987 272.092 242.258 271.936 242.551 271.936 L 395.417 271.936 C 396.048 271.936 396.442 272.619 396.126 273.164 C 395.98 273.418 395.709 273.574 395.417 273.574 Z" fill="#e6e6e6" style=""/>
    <path d="M 395.417 304.468 L 242.551 304.468 C 241.92 304.468 241.526 303.786 241.841 303.24 C 241.987 302.987 242.258 302.83 242.551 302.83 L 395.417 302.83 C 396.048 302.83 396.442 303.512 396.126 304.059 C 395.98 304.313 395.709 304.468 395.417 304.468 Z" fill="#e6e6e6" style=""/>
    <path d="M 395.417 335.362 L 242.551 335.362 C 241.92 335.362 241.526 334.68 241.841 334.133 C 241.987 333.88 242.258 333.724 242.551 333.724 L 395.417 333.724 C 396.048 333.724 396.442 334.406 396.126 334.953 C 395.98 335.206 395.709 335.362 395.417 335.362 Z" fill="#e6e6e6" style=""/>
    <path d="M 395.417 366.257 L 242.551 366.257 C 241.92 366.257 241.526 365.574 241.841 365.028 C 241.987 364.774 242.258 364.618 242.551 364.618 L 395.417 364.618 C 396.048 364.618 396.442 365.301 396.126 365.847 C 395.98 366.1 395.709 366.257 395.417 366.257 Z" fill="#e6e6e6" style=""/>
    <path d="M 372.754 111.893 L 267.328 111.893 C 264.924 111.896 263.417 109.297 264.616 107.213 C 265.174 106.243 266.209 105.645 267.328 105.647 L 372.754 105.647 C 375.158 105.651 376.657 108.256 375.451 110.336 C 374.894 111.298 373.867 111.891 372.754 111.893 Z" style="fill: rgb(142, 32, 45);"/>
    <path d="M 372.754 142.786 L 267.328 142.786 C 264.924 142.786 263.421 140.184 264.624 138.102 C 265.182 137.136 266.212 136.541 267.328 136.541 L 372.754 136.541 C 375.158 136.541 376.661 139.144 375.459 141.225 C 374.901 142.191 373.87 142.786 372.754 142.786 Z" fill="#ccc" style=""/>
    <path d="M 372.754 173.68 L 267.328 173.68 C 264.924 173.684 263.417 171.084 264.616 169.001 C 265.174 168.03 266.209 167.433 267.328 167.435 L 372.754 167.435 C 375.158 167.439 376.657 170.044 375.451 172.124 C 374.894 173.085 373.867 173.678 372.754 173.68 Z" fill="#ccc" style=""/>
    <path d="M 372.754 204.575 L 267.328 204.575 C 264.924 204.575 263.421 201.972 264.624 199.89 C 265.182 198.924 266.212 198.329 267.328 198.329 L 372.754 198.329 C 375.158 198.329 376.661 200.931 375.459 203.013 C 374.901 203.979 373.87 204.575 372.754 204.575 Z" fill="#ccc" style=""/>
    <path d="M 372.754 235.468 L 267.328 235.468 C 264.924 235.472 263.417 232.872 264.616 230.789 C 265.174 229.819 266.209 229.221 267.328 229.223 L 372.754 229.223 C 375.158 229.226 376.657 231.831 375.451 233.911 C 374.894 234.874 373.867 235.467 372.754 235.468 Z" fill="#ccc" style=""/>
    <path d="M 372.754 266.362 L 267.328 266.362 C 264.924 266.366 263.417 263.766 264.616 261.682 C 265.174 260.712 266.209 260.115 267.328 260.117 L 372.754 260.117 C 375.158 260.121 376.657 262.725 375.451 264.805 C 374.894 265.767 373.867 266.36 372.754 266.362 Z" fill="#ccc" style=""/>
    <path d="M 372.754 297.256 L 267.328 297.256 C 264.924 297.256 263.421 294.654 264.624 292.572 C 265.182 291.606 266.212 291.011 267.328 291.011 L 372.754 291.011 C 375.158 291.011 376.661 293.613 375.459 295.694 C 374.901 296.661 373.87 297.256 372.754 297.256 Z" fill="#ccc" style=""/>
    <path d="M 372.754 328.15 L 267.328 328.15 C 264.924 328.154 263.417 325.554 264.616 323.47 C 265.174 322.501 266.209 321.903 267.328 321.905 L 372.754 321.905 C 375.158 321.908 376.657 324.513 375.451 326.593 C 374.894 327.556 373.867 328.149 372.754 328.15 Z" fill="#ccc" style=""/>
    <path d="M 372.754 359.044 L 267.328 359.044 C 264.924 359.044 263.421 356.442 264.624 354.36 C 265.182 353.393 266.212 352.799 267.328 352.799 L 372.754 352.799 C 375.158 352.799 376.661 355.401 375.459 357.483 C 374.901 358.448 373.87 359.044 372.754 359.044 Z" fill="#ccc" style=""/>
    <path d="M 110.124 84.546 C 107.233 74.005 130.549 64.967 136.672 73.455 C 137.524 72.248 140.671 71.515 142.114 71.885 C 143.527 72.355 144.834 73.099 145.957 74.077 C 147.585 75.328 149.274 76.623 150.273 78.423 C 151.28 80.215 151.435 82.658 150.08 84.212 C 149.007 85.449 145.838 86.249 144.224 86.575 C 143.099 86.804 142.151 86.989 141.337 87.122 C 140.597 86.056 140.256 84.764 140.374 83.472 C 139.264 84.221 138.548 85.427 138.42 86.76 C 138.398 87.033 147.519 120.593 147.519 120.593 C 146.423 121.218 145.27 121.735 144.076 122.141 C 141.714 118.531 139.905 114.588 138.709 110.443 C 138.434 113.215 138.469 116.009 138.812 118.772 C 138.996 120.322 139.257 121.861 139.597 123.385 C 128.759 125.725 112.456 124.955 105.363 115.004 L 105.359 114.881 C 105.341 113.577 103.918 112.783 102.8 113.449 C 102.475 113.643 102.225 113.939 102.088 114.29 C 101.916 114.729 101.758 115.109 101.617 115.411 C 99.552 108.023 102.224 99.471 110.124 84.546 Z" fill="#2f2e41" style=""/>
    <polygon points="161.238 421.68 169.314 421.612 172.889 389.737 160.971 389.837 161.238 421.68" fill="#a0616a" style=""/>
    <path d="M 185.525 431.567 L 172.626 422.818 L 172.578 417.039 L 169.804 417.225 L 161.206 417.817 L 159.099 417.957 L 157.568 438.383 L 163.627 438.328 L 164.659 432.601 L 167.47 438.299 L 183.527 438.165 C 186.307 438.141 188.018 435.116 186.607 432.721 C 186.336 432.261 185.966 431.867 185.525 431.567 Z" fill="#2f2e41" style=""/>
    <polygon points="80.712 418.532 88.696 419.746 97.281 388.84 85.496 387.049 80.712 418.532" fill="#a0616a" style=""/>
    <path d="M 103.123 432.144 L 91.775 421.461 L 92.644 415.747 L 89.876 415.49 L 81.293 414.712 L 79.19 414.516 L 74.44 434.44 L 80.431 435.347 L 82.358 429.856 L 84.23 435.928 L 100.104 438.342 C 102.853 438.759 105.022 436.044 104.009 433.456 C 103.814 432.959 103.511 432.51 103.123 432.144 Z" fill="#2f2e41" style=""/>
    <path d="M 157.524 198.983 L 180.422 239.993 C 180.422 239.993 179.467 324.337 182.51 327.466 C 185.553 330.594 173.764 403.427 173.764 403.427 L 159.393 403.427 C 159.393 403.427 149.282 366.055 151.437 344.743 L 134.413 266.86 L 118.763 354.333 L 94.6 404.482 L 81.493 402.829 C 81.493 402.829 83.766 361.888 91.678 344.313 L 91.678 261.254 C 91.081 268.376 118.958 196.299 101.912 201.709 C 107.305 199.997 157.524 198.983 157.524 198.983 Z" fill="#2f2e41" style=""/>
    <path d="M 138.063 120.784 L 114.785 115.846 L 110.164 125.15 L 94.6 134.16 C 94.6 134.16 104.632 175.18 104.575 180.95 C 104.43 195.597 80.994 228.431 98.696 225.906 C 116.398 223.38 119.994 212.799 125.677 214.472 C 149.122 221.374 176.987 220.643 167.505 211.161 C 158.023 201.679 160.142 138.562 160.142 138.562 L 141.777 129.883 L 138.063 120.784 Z" style="fill: rgb(0, 66, 37);"/>
    <path d="M 94.16 269.752 C 96.105 267.433 95.849 263.987 93.584 261.98 C 93.36 261.787 93.12 261.613 92.866 261.46 L 96.758 242.359 L 87.761 236.974 L 85.259 263.717 C 84.12 265.977 84.648 268.72 86.543 270.397 C 88.767 272.327 92.135 272.088 94.065 269.864 C 94.097 269.827 94.129 269.79 94.16 269.752 Z" fill="#a0616a" style=""/>
    <path d="M 89.19 180.378 L 89.939 145.572 C 90.136 136.355 97.889 129.112 107.098 129.54 C 114.21 129.872 112.316 132.714 114.205 139.579 C 117.275 150.738 118.455 157.188 117.715 158.751 C 117.464 159.28 117.199 159.787 116.946 160.274 C 115.636 162.785 114.69 164.599 117.095 166.338 C 118.045 166.967 119.081 167.457 120.17 167.794 C 121.255 168.179 122.04 168.458 122.095 169.071 C 122.147 169.665 121.477 170.281 119.621 171.343 C 114.637 174.196 110.315 191.245 110.273 191.413 L 95.81 252.083 L 84.288 251.511 L 89.19 180.378 Z" style="fill: rgb(0, 66, 37);"/>
    <path d="M 234.165 227.932 C 231.169 227.507 229.057 224.772 229.402 221.765 C 229.44 221.472 229.503 221.182 229.589 220.898 L 213.932 209.285 L 217.03 199.268 L 236.757 217.496 C 239.114 218.416 240.554 220.811 240.264 223.324 C 239.899 226.247 237.233 228.319 234.31 227.953 C 234.262 227.947 234.214 227.94 234.165 227.932 Z" fill="#a0616a" style=""/>
    <path d="M 229.325 207.765 L 221.134 215.887 L 169.842 180.403 C 169.698 180.306 155.092 170.507 149.478 171.714 C 147.387 172.164 146.477 172.154 146.119 171.676 C 145.75 171.183 146.148 170.451 146.698 169.44 C 147.283 168.462 147.726 167.405 148.014 166.302 C 148.642 163.402 146.726 162.683 144.074 161.69 C 143.559 161.497 143.023 161.296 142.484 161.07 C 140.889 160.403 137.458 154.814 132.288 144.46 C 129.108 138.089 125.799 137.24 130.87 132.242 C 137.436 125.771 148.044 125.982 154.349 132.708 L 178.158 158.108 L 229.325 207.765 Z" style="fill: rgb(0, 66, 37);"/>
    <circle cx="128.242" cy="96.507" r="18.991" fill="#a0616a" style=""/>
    <path d="M 99.759 86.027 C 96.867 75.486 120.184 66.448 126.308 74.936 C 127.159 73.729 130.306 72.996 131.749 73.366 C 133.162 73.836 134.468 74.58 135.592 75.558 C 137.221 76.809 138.909 78.104 139.908 79.903 C 140.915 81.696 141.071 84.138 139.716 85.693 C 138.642 86.929 135.473 87.73 133.86 88.055 C 132.734 88.284 131.786 88.469 130.972 88.603 C 130.232 87.537 129.892 86.244 130.009 84.953 C 128.9 85.701 128.183 86.907 128.055 88.24 C 128.033 88.514 137.154 122.074 137.154 122.074 C 136.058 122.698 134.906 123.216 133.711 123.622 C 131.35 120.012 129.54 116.069 128.344 111.924 C 128.069 114.695 128.103 117.49 128.447 120.253 C 128.63 121.803 128.892 123.342 129.232 124.865 C 118.393 127.205 102.091 126.435 94.998 116.484 L 94.995 116.361 C 94.976 115.057 93.554 114.263 92.434 114.931 C 92.11 115.124 91.86 115.42 91.724 115.771 C 91.552 116.21 91.393 116.589 91.252 116.892 C 89.186 109.503 91.859 100.952 99.759 86.027 Z" fill="#2f2e41" style=""/>
  </g>
  <path fill="#2f2e41"/>
</svg>