<?xml version="1.0" encoding="utf-8"?>
<svg xmlns="http://www.w3.org/2000/svg" viewBox="0 0 500 500">
  <g style="" transform="matrix(1.085634, 0, 0, 1.085634, -5.529927, -22.142851)">
    <path d="M 428.739 309.064 C 428.739 420.397 249.3 471.956 148.448 471.956 C 47.596 471.956 74.525 356.872 74.525 245.539 C 74.525 134.206 78.334 28.045 179.186 28.045 C 280.039 28.045 428.739 197.731 428.739 309.064 Z" style="fill: rgb(0, 88, 50); fill-opacity: 0.5;"/>
    <path id="uuid-4d2d9b01-4014-4a15-9fb7-c70aeb2aff54-448" d="M 264.029 133.052 C 268.791 128.205 275.154 126.733 278.237 129.765 C 281.323 132.798 279.96 139.184 275.195 144.033 C 273.318 145.995 270.998 147.479 268.43 148.362 L 247.986 168.647 L 238.673 158.851 L 259.813 139.895 C 260.653 137.31 262.097 134.963 264.029 133.052 Z" fill="#a0616a" style=""/>
    <path d="M 198.65 116.309 L 220.084 163.858 L 254.31 145.331 L 266.558 151.831 C 266.558 151.831 238.58 198.606 219.422 193.283 C 200.265 187.957 166.247 139.676 172.377 124.775 C 178.506 109.874 198.65 116.309 198.65 116.309 Z" style="fill: rgb(0, 66, 37);"/>
    <g transform="matrix(1.437037, 0, 0, 1.437037, 33.400723, -64.259926)" style="">
      <polygon points="108.4523 346.16934 119.32763 346.16828 124.50109 304.22009 108.45012 304.22122 108.4523 346.16934" style=""/>
      <path d="M145.71256,345.92263h0c.33862,.5703,.51729,2.41097,.51729,3.07418h0c0,2.03853-1.65253,3.69113-3.69113,3.69113h-33.67964c-1.39068,0-2.51811-1.12736-2.51811-2.51811v-1.40219s-1.6661-4.21431,1.7641-9.40869c0,0,4.26328,4.06727,10.63372-2.30317l1.87859-3.4032,13.59838,9.94517,7.53738,.92778c1.64902,.20296,3.11104-.0315,3.95927,1.39709h.00013Z" fill="#2f2e41"/>
    </g>
    <polygon points="201.079 119.36 201.395 98.282 188.396 90.178 174.261 107.469 201.079 119.36" style="fill: rgb(249, 174, 185);"/>
    <polygon points="201.079 119.36 201.92 98.806 188.396 90.178 192.991 115.615 201.079 119.36" opacity=".1" style=""/>
    <circle cx="201.119" cy="81.722" r="23.118" style="fill: rgb(249, 174, 185);"/>
    <path d="M 232.646 258.744 L 211.112 405.289 L 184.093 405.289 L 187.685 321.637 L 189.577 277.653 L 184.093 256.716 C 184.093 256.716 181.593 252.064 179.487 246.421 C 177.112 240.056 175.238 232.425 178.022 228.805 C 179.046 227.471 181.709 226.484 185.327 225.748 C 187.539 225.297 190.113 224.945 192.89 224.672 C 208.869 223.091 231.595 224.078 231.595 224.078 L 232.175 243.145 L 232.495 253.79 L 232.646 258.744 Z" fill="#2f2e41" style=""/>
    <g transform="matrix(1.437037, 0, 0, 1.437037, 33.400723, -64.259926)" style="">
      <polygon points="89.29503 341.18207 100.05485 342.76292 111.27495 302.01338 95.39452 299.67977 89.29503 341.18207" style=""/>
      <path d="M126.19489,346.35776h0c.25206,.61349,.1611,2.46057,.06463,3.11673h0c-.29652,2.01685-2.17186,3.4115-4.18878,3.11497l-33.32144-4.89894c-1.37589-.20228-2.32734-1.48165-2.12505-2.8576l.20396-1.38728s-1.03538-4.41184,3.1139-9.05202c0,0,3.62633,4.64414,10.85564-.73192l2.35363-3.09375,12.00716,11.81738,7.32226,2.01428c1.60196,.44066,3.08253,.42136,3.71395,1.95814l.00013,.00002Z" fill="#2f2e41"/>
    </g>
    <path d="M 232.985 234.304 L 230.032 259.743 L 213.924 313.347 L 187.407 401.597 L 160.678 397.669 L 184.667 272.19 L 182.292 250.673 C 182.292 250.673 181.517 248.535 180.631 245.404 C 178.872 239.209 176.663 229.12 179.091 223.977 C 179.421 223.276 179.832 222.671 180.341 222.178 C 181.296 221.251 183.238 220.69 185.839 220.391 C 196.71 219.163 219.101 222.676 229.064 224.402 L 232.985 234.304 Z" fill="#2f2e41" style=""/>
    <path d="M 177.234 103.009 L 203.496 115.615 C 203.496 115.615 231.333 198.078 231.333 202.28 C 231.333 206.482 239.212 209.109 234.485 213.836 C 229.757 218.563 243.285 222.567 235.995 226.341 C 228.707 230.118 183.242 250.773 178.187 248.91 C 164.243 243.773 178.777 224.897 178.777 224.897 C 178.777 224.897 168.304 216.462 169.879 212.26 C 171.456 208.059 160.425 127.694 160.425 127.694 L 177.233 103.009 L 177.234 103.009 Z" style="fill: rgb(0, 66, 37);"/>
    <path d="M 333.976 213.535 L 265.8 213.535 C 261.289 213.535 257.619 209.866 257.619 205.354 L 257.619 108.192 C 257.619 103.679 261.289 100.009 265.8 100.009 L 333.976 100.009 C 338.486 100.009 342.156 103.679 342.156 108.192 L 342.156 205.354 C 342.156 209.866 338.486 213.535 333.976 213.535 Z" style="fill: rgb(214, 214, 214);"/>
    <g transform="matrix(1.437037, 0, 0, 1.437037, 33.400723, -64.259926)" style="">
      <path id="uuid-264cfc9b-ec7b-45c7-b901-d09aac5ec40c-449" d="M155.77513,166.96237c4.53556-1.33997,8.90339-.08589,9.75568,2.80071,.85229,2.8866-2.13351,6.31199-6.67086,7.65183-1.80515,.56007-3.71817,.6797-5.57902,.34887l-19.28905,5.4348-2.35746-9.10615,19.26587-4.39097c1.38288-1.28925,3.05446-2.2285,4.87483-2.7391Z" style="fill: rgb(249, 174, 185);"/>
      <path d="M121.65775,134.69035l-3.02326,36.16781,27.08051,.29119,5.25571,8.0928s-32.82312,19.00521-42.67896,9.29416c-9.85585-9.71105-14.24118-50.57605-5.47848-57.57094,8.7627-6.99488,18.84449,3.72498,18.84449,3.72498Z" style="fill: rgb(0, 66, 37);"/>
    </g>
    <path d="M 273.036 137.05 L 326.329 135.439 C 330.032 135.327 330.386 129.537 326.651 129.651 L 273.357 131.262 C 269.655 131.373 269.301 137.164 273.036 137.05 Z" style="fill: rgb(149, 149, 149);"/>
    <path d="M 273.036 156.375 L 326.329 154.764 C 330.032 154.653 330.386 148.862 326.651 148.976 L 273.357 150.587 C 269.655 150.699 269.301 156.489 273.036 156.375 Z" fill="#fff" style=""/>
    <path d="M 273.036 175.702 L 326.329 174.089 C 330.032 173.979 330.386 168.189 326.651 168.301 L 273.357 169.913 C 269.655 170.024 269.301 175.815 273.036 175.702 Z" fill="#fff" style=""/>
    <path d="M 214.683 102.722 C 212.193 105.661 213.862 107.183 211.337 110.499 C 207.486 115.556 204.493 112.658 200.162 112.242 C 192.992 111.554 194.427 89.187 194.427 83.709 C 194.427 78.231 200.03 95.759 208.302 96.722 C 216.574 97.685 223.412 92.421 214.683 102.722 Z" style="fill: rgb(49, 34, 25);"/>
    <path d="M 221.748 100.627 C 221.748 103.502 219.997 106.203 217.31 108.052 C 214.641 109.889 210.889 111.045 206.836 111.045 C 202.783 111.045 199.031 109.889 196.362 108.052 C 193.675 106.203 191.924 103.502 191.924 100.627 C 191.924 97.752 193.675 95.051 196.362 93.202 C 199.031 91.365 202.783 90.209 206.836 90.209 C 210.889 90.209 214.641 91.365 217.31 93.202 C 219.997 95.051 221.748 97.752 221.748 100.627 Z M 216.743 94.026 C 214.197 92.273 210.742 91.209 206.836 91.209 C 202.93 91.209 199.475 92.273 196.929 94.026 C 194.399 95.767 192.924 98.025 192.924 100.627 C 192.924 103.229 194.399 105.487 196.929 107.228 C 199.475 108.981 202.93 110.045 206.836 110.045 C 210.742 110.045 214.197 108.981 216.743 107.228 C 219.273 105.487 220.748 103.229 220.748 100.627 C 220.748 98.025 219.273 95.767 216.743 94.026 Z" style="fill: none;"/>
    <path d="M 223.066 62.261 C 223.261 64.897 223.365 65.99 223.378 69.129 C 223.383 70.291 223.277 72.447 222.735 73.754 C 222.126 75.225 221.715 77.366 220.231 79.517 C 219.536 80.525 218.778 81.813 218.038 82.759 C 217.013 84.069 216.097 84.889 216.097 84.889 C 213.301 88.601 202.454 91.766 199.933 91.165 C 198.676 90.865 196.089 90.427 194.688 90.269 C 191.742 89.936 190.564 89.092 188.033 87.446 C 182.044 83.55 179.703 77.958 179.087 76.578 C 178.072 74.304 177.676 72.477 177.908 71.968 C 178.278 71.155 180.859 72.671 183.4 74.132 C 184.794 74.933 188.202 77.134 190.488 77.389 C 199.1 78.35 219.231 53.311 221.897 59.384 C 222.035 59.699 223.03 61.776 223.066 62.261 Z" style="fill: rgba(48, 24, 11, 0.525); transform-box: fill-box; transform-origin: 50% 50%;" transform="matrix(-0.999006, 0.044585, -0.044585, -0.999006, 0.000019, -0.000008)"/>
  </g>
</svg>