<svg xmlns="http://www.w3.org/2000/svg" width="31,83" height="40" viewBox="0 0 67.418 84.719">         <g id="Group_77" data-name="Group 77" transform="translate(-1442.23 -534.761)">             <g id="Group_76" data-name="Group 76">                 <path id="Path_208" data-name="Path 208" d="M1504.119,534.761h-56.36a5.557,5.557,0,0,0-5.529,5.529v73.661a5.557,5.557,0,0,0,5.529,5.529h56.36a5.557,5.557,0,0,0,5.529-5.529V540.29A5.557,5.557,0,0,0,1504.119,534.761Zm.981,79.19a.99.99,0,0,1-.981.981h-56.36a.99.99,0,0,1-.981-.981V540.29a.99.99,0,0,1,.981-.981h56.36a.99.99,0,0,1,.981.981Z" fill="currentColor"></path>                 <path id="Path_209" data-name="Path 209" d="M1492.7,587.822h-33.531a2.229,2.229,0,0,0,0,4.459h33.62a2.208,2.208,0,0,0,2.23-2.23A2.285,2.285,0,0,0,1492.7,587.822Z" fill="currentColor"></path>                 <path id="Path_210" data-name="Path 210" d="M1492.7,601.377h-33.531a2.229,2.229,0,0,0,0,4.459h33.62a2.208,2.208,0,0,0,2.23-2.23A2.285,2.285,0,0,0,1492.7,601.377Z" fill="currentColor"></path>                 <path id="Path_211" data-name="Path 211" d="M1492.7,574.267h-33.531a2.229,2.229,0,0,0,0,4.459h33.62a2.208,2.208,0,0,0,2.23-2.23A2.285,2.285,0,0,0,1492.7,574.267Z" fill="currentColor"></path>                 <path id="Path_212" data-name="Path 212" d="M1467.824,565.706a2.229,2.229,0,0,0,1.6.713,2.088,2.088,0,0,0,1.605-.713l13.644-13.644a2.333,2.333,0,1,0-3.3-3.3l-13.554,13.644A2.218,2.218,0,0,0,1467.824,565.706Z" fill="currentColor"></path>                 <circle id="Ellipse_2" data-name="Ellipse 2" cx="3.656" cy="3.656" r="3.656" transform="translate(1466.218 547.246)" fill="currentColor"></circle>                 <circle id="Ellipse_3" data-name="Ellipse 3" cx="3.656" cy="3.656" r="3.656" transform="translate(1478.881 559.909)" fill="currentColor"></circle>             </g>         </g>     </svg>
